<svg width="32" height="37" viewBox="0 0 32 37" fill="none" xmlns="http://www.w3.org/2000/svg">
<path d="M4.16211 22.3984H7.98271V24.3681H4.16211V22.3984Z" fill="white"/>
<path d="M4.16211 26.3539H7.98271V28.3235H4.16211V26.3539Z" fill="white"/>
<path d="M8.56292 18.443H2.27585C2.56602 16.8447 3.58162 15.2303 5.09697 14.536V11.291H7.07981V11.4363C7.49895 10.4191 8.19214 9.4989 9.04654 8.78854V2.58899H3.13024V13.4059C1.3086 14.8428 0.228516 17.0546 0.228516 19.3956V36.2022H11.9483V20.3158C10.6102 20.0414 9.46568 19.3633 8.56292 18.4108V18.443ZM5.09697 4.59093H7.07981V9.33746H5.09697V4.59093ZM9.98154 34.281H2.19524V32.2952H9.98154V34.281ZM9.98154 30.3255H2.19524V20.4288H9.98154V30.3255Z" fill="white"/>
<path d="M18.8963 24.8363C12.0773 24.8363 6.54785 19.2825 6.54785 12.4695C6.54785 5.65642 12.0934 0.102661 18.8963 0.102661C25.6992 0.102661 31.2448 5.65642 31.2448 12.4695C31.2448 19.2825 25.6992 24.8363 18.8963 24.8363ZM18.8963 1.9593C13.109 1.9593 8.41785 6.67354 8.41785 12.4533C8.41785 18.2331 13.1251 22.9473 18.8963 22.9473C24.6675 22.9473 29.3748 18.2331 29.3748 12.4533C29.3748 6.67354 24.6675 1.9593 18.8963 1.9593Z" fill="white"/>
<path d="M14.1572 18.4914C13.8509 18.4914 13.5446 18.3784 13.3028 18.1362C12.8353 17.668 12.8353 16.8931 13.3028 16.4249L22.5399 7.17402C23.0074 6.70583 23.7812 6.70583 24.2487 7.17402C24.7162 7.64222 24.7162 8.41716 24.2487 8.88536L15.0116 18.1362C14.7698 18.3784 14.4635 18.4914 14.1572 18.4914Z" fill="#C2D100"/>
<path d="M15.1569 11.8237C13.7866 11.8237 12.7227 10.403 12.7227 8.59478C12.7227 6.78657 13.7866 5.36584 15.1569 5.36584C16.5271 5.36584 17.5911 6.78657 17.5911 8.59478C17.5911 10.403 16.5271 11.8237 15.1569 11.8237ZM15.1569 6.98031C14.8183 6.98031 14.3347 7.60995 14.3347 8.59478C14.3347 9.5796 14.8183 10.2092 15.1569 10.2092C15.4954 10.2092 15.979 9.5796 15.979 8.59478C15.979 7.60995 15.4954 6.98031 15.1569 6.98031Z" fill="#C2D100"/>
<path d="M22.943 19.4924C21.5728 19.4924 20.5088 18.0717 20.5088 16.2635C20.5088 14.4553 21.5728 13.0345 22.943 13.0345C24.3133 13.0345 25.3772 14.4553 25.3772 16.2635C25.3772 18.0717 24.3133 19.4924 22.943 19.4924ZM22.943 14.649C22.6045 14.649 22.1209 15.2787 22.1209 16.2635C22.1209 17.2483 22.6045 17.8779 22.943 17.8779C23.2815 17.8779 23.7652 17.2483 23.7652 16.2635C23.7652 15.2787 23.2815 14.649 22.943 14.649Z" fill="#C2D100"/>
</svg>
