<svg width="30" height="30" viewBox="0 0 30 30" fill="none" xmlns="http://www.w3.org/2000/svg">
<path d="M14.6522 29.4423C13.5339 28.5396 12.9511 27.1212 13.0771 25.6705C11.8169 25.461 10.9033 24.3166 10.9663 23.0109C10.1945 22.9465 9.48569 22.5757 8.98163 21.9632C8.49333 21.3507 8.25705 20.5609 8.33581 19.7872C8.22555 19.7389 8.11529 19.6744 8.02078 19.6099C6.27234 18.5461 5.5005 16.3378 6.24084 14.3714C5.05946 13.2914 4.46089 11.6795 4.66567 10.0677C4.28762 9.85814 3.94109 9.63248 3.59455 9.3907C3.56305 9.37458 3.54729 9.35846 3.51579 9.34235C3.185 9.11668 2.86997 8.85879 2.55494 8.60089C2.52343 8.56865 2.47618 8.53641 2.44467 8.50418C1.79885 7.94002 0.948264 7.2308 0.459961 6.58606C4.41364 12.3082 0.72774 29.4745 14.668 29.4745L14.6522 29.4423Z" fill="#C2D100"/>
<path d="M19.0154 16.2573C19.1729 16.6764 19.3934 17.0794 19.6927 17.4662C19.8975 17.7402 19.9763 18.0948 19.8818 18.4172C19.6455 19.2876 19.6455 20.2225 19.8818 21.0929C19.9448 21.3347 19.929 21.5926 19.8345 21.8182C20.118 21.7054 20.3701 21.5281 20.5748 21.2863C20.8899 20.8995 21.0316 20.3998 20.9844 19.9001C20.9371 19.4488 21.1734 19.0297 21.5672 18.8202C21.6144 18.8041 21.6459 18.7718 21.6932 18.7396C21.5672 18.4011 21.5042 18.1432 21.5042 18.1432C21.2206 13.6783 24.9538 4.70025 25.1743 4.16833C24.4025 5.81244 23.0951 7.11805 21.4884 7.87562C21.4884 9.3263 20.9056 10.6964 19.8975 11.7119C20.0393 13.1787 19.7085 14.6616 18.9209 15.9027C18.9524 16.0155 18.9839 16.1445 19.0312 16.2573H19.0154Z" fill="#C2D100"/>
<path d="M8.85557 18.1432C8.85557 18.1432 8.83982 18.4656 8.77681 18.8202C9.1706 19.0136 9.40688 19.4488 9.37537 19.9001C9.32812 20.3998 9.48564 20.9156 9.78492 21.2863C9.97394 21.5281 10.2417 21.7054 10.5252 21.8182C10.4307 21.5926 10.3992 21.3347 10.478 21.0929C10.7143 20.2225 10.7143 19.2876 10.478 18.4172C10.3835 18.0787 10.4622 17.7241 10.667 17.4662C10.9505 17.0955 11.1711 16.7086 11.3443 16.2573C11.3916 16.1445 11.4073 16.0316 11.4546 15.9188C10.667 14.6777 10.3205 13.1948 10.478 11.7119C9.46988 10.7125 8.88707 9.3263 8.88707 7.87562C7.26464 7.11805 5.97301 5.81244 5.20117 4.16833C5.4217 4.70025 9.15485 13.6783 8.87132 18.1432H8.85557Z" fill="#C2D100"/>
<path d="M27.9312 8.48807C27.9312 8.48807 27.8524 8.55255 27.8209 8.58479C27.5217 8.84268 27.1909 9.10058 26.8601 9.32624C26.8286 9.34236 26.8128 9.35848 26.7813 9.3746C26.4348 9.61638 26.0725 9.84204 25.7102 10.0516C25.8992 11.6634 25.3164 13.2753 24.135 14.3553C24.8281 16.2573 24.1508 18.3527 22.5599 19.4649C22.3866 19.5777 22.2133 19.6905 22.0401 19.7711C22.1188 20.5609 21.8825 21.3507 21.3942 21.9471C20.9059 22.5596 20.1814 22.9304 19.4095 22.9948C19.4725 24.3005 18.5747 25.4449 17.2988 25.6544C17.4248 27.1051 16.8263 28.5074 15.7236 29.4262C17.4878 29.4262 19.063 29.1683 20.6067 28.4752C28.766 24.8001 26.5135 11.47 29.9317 6.53772C29.4591 7.16635 28.6085 7.87557 27.9469 8.45584L27.9312 8.48807Z" fill="#C2D100"/>
<path d="M11.8797 22.4468H11.864C11.9743 22.6241 12.0373 22.8498 12.0215 23.0754C11.99 23.833 12.5098 24.4938 13.2501 24.6228C13.8014 24.7195 14.1795 25.2192 14.1322 25.7833C14.0377 26.8149 14.4315 27.8143 15.1876 28.4913C15.9437 27.7982 16.3375 26.7988 16.243 25.7833C16.1957 25.2192 16.5737 24.7195 17.1251 24.6228C17.8654 24.4938 18.3852 23.833 18.3537 23.0754C18.3537 22.8498 18.4009 22.6241 18.5112 22.4468L18.8892 21.3668C18.6057 20.303 18.6057 19.1908 18.8892 18.127C18.5427 17.6757 18.2592 17.1599 18.0544 16.628C17.6449 15.5641 17.5504 14.3713 17.7866 13.2269C17.1093 11.873 17.1093 10.2611 17.7866 8.90713C16.936 7.666 16.6053 6.13473 16.873 4.6357C15.8019 3.47515 15.2191 1.96 15.2034 0.364258C15.2034 1.94388 14.6048 3.47515 13.5337 4.6357C13.7857 6.13473 13.4549 7.666 12.6201 8.90713C13.2974 10.2611 13.2974 11.873 12.6201 13.2269C12.8721 14.3875 12.7776 15.5641 12.3523 16.6441C12.1633 17.176 11.8797 17.6757 11.5332 18.127C11.8167 19.1908 11.8167 20.303 11.5332 21.3668L11.9112 22.4468H11.8797Z" fill="#C2D100"/>
</svg>
