<svg width="52" height="35" viewBox="0 0 52 35" fill="none" xmlns="http://www.w3.org/2000/svg">
<path d="M50.6827 19.2008H47.805L47.7733 18.9909C47.2041 15.6813 44.4054 13.2919 41.1323 13.2919C39.7567 13.2919 38.4285 13.7116 37.2901 14.5189L37.2268 14.5673H29.732L29.6687 14.5189C28.5303 13.7116 27.2021 13.2919 25.8265 13.2919C24.4508 13.2919 23.091 13.7278 21.9525 14.5512L21.5414 14.8418V14.5673H14.4261L14.3628 14.5189C13.2244 13.7116 11.8962 13.2919 10.5206 13.2919C7.2317 13.2919 4.44881 15.6974 3.87958 18.9909L3.84796 19.2008H0.970197C0.448405 19.2008 0.0214844 19.6367 0.0214844 20.1695V34.0216C0.0214844 34.5544 0.448405 34.9903 0.970197 34.9903H10.0304C10.5522 34.9903 10.9791 34.5544 10.9791 34.0216V31.3255H40.6896V34.0216C40.6896 34.5544 41.1165 34.9903 41.6383 34.9903H50.6985C51.2203 34.9903 51.6472 34.5544 51.6472 34.0216V20.1695C51.6472 19.6367 51.2203 19.2008 50.6985 19.2008H50.6827ZM41.1323 15.2292C43.8045 15.2292 45.9708 17.441 45.9708 20.1695C45.9708 22.8979 43.8045 25.1098 41.1323 25.1098C38.4601 25.1098 36.2939 22.8979 36.2939 20.1695C36.2939 17.441 38.4601 15.2292 41.1323 15.2292ZM25.8265 15.2292C28.4987 15.2292 30.6649 17.441 30.6649 20.1695C30.6649 22.8979 28.4987 25.1098 25.8265 25.1098C23.1542 25.1098 20.988 22.8979 20.988 20.1695C20.988 17.441 23.1542 15.2292 25.8265 15.2292ZM10.5206 15.2292C13.1928 15.2292 15.359 17.441 15.359 20.1695C15.359 22.8979 13.1928 25.1098 10.5206 25.1098C7.84836 25.1098 5.68213 22.8979 5.68213 20.1695C5.68213 17.441 7.84836 15.2292 10.5206 15.2292ZM49.7498 33.0529H42.6028V30.3568C42.6028 29.824 42.1759 29.3881 41.6541 29.3881H10.0146C9.49279 29.3881 9.06587 29.824 9.06587 30.3568V33.0529H1.91891V21.1543H3.84796L3.87958 21.3642C4.44881 24.6739 7.24751 27.0633 10.5206 27.0633C14.2364 27.0633 17.2722 23.9635 17.2722 20.1695C17.2722 19.0232 16.9876 17.8931 16.4658 16.8921L16.2603 16.5047H20.1026L19.897 16.8921C19.3594 17.8931 19.0906 19.0232 19.0906 20.1695C19.0906 23.9635 22.1265 27.0633 25.8423 27.0633C29.5581 27.0633 32.5939 23.9635 32.5939 20.1695C32.5939 19.0232 32.3093 17.8931 31.7875 16.8921L31.582 16.5047H35.4243L35.2187 16.8921C34.6811 17.8931 34.4123 19.0232 34.4123 20.1695C34.4123 23.9635 37.4482 27.0633 41.164 27.0633C44.4528 27.0633 47.2357 24.6577 47.805 21.3642L47.8366 21.1543H49.7656V33.0529H49.7498Z" fill="white"/>
<path d="M43.061 6.44654H40.1517L40.12 6.23666C39.5508 2.92701 36.7521 0.537598 33.479 0.537598C30.206 0.537598 27.4073 2.94315 26.8381 6.23666L26.8064 6.44654H24.8616L24.83 6.23666C24.2607 2.92701 21.462 0.537598 18.189 0.537598C14.9159 0.537598 12.1172 2.94315 11.548 6.23666L11.5164 6.44654H9.09715C8.57536 6.44654 8.14844 6.88245 8.14844 7.41522V12.194H10.0617V8.3839H11.5322L11.5638 8.59378C12.133 11.9034 14.9317 14.2928 18.2048 14.2928C21.4778 14.2928 24.2765 11.8873 24.8458 8.59378L24.8774 8.3839H26.8223L26.8539 8.59378C27.4231 11.9034 30.2218 14.2928 33.4949 14.2928C36.7679 14.2928 39.535 11.9357 40.1358 8.6745L40.1675 8.46462L40.3888 8.3839H42.1281V12.081H44.0414V7.41522C44.0414 6.88245 43.6145 6.44654 43.0927 6.44654H43.061ZM18.1573 12.3716C15.4851 12.3716 13.3189 10.1598 13.3189 7.43137C13.3189 4.70292 15.4851 2.4911 18.1573 2.4911C20.8296 2.4911 22.9958 4.70292 22.9958 7.43137C22.9958 10.1598 20.8296 12.3716 18.1573 12.3716ZM38.2226 8.33547C37.7957 10.6764 35.7876 12.3716 33.4632 12.3716C30.791 12.3716 28.6248 10.1598 28.6248 7.43137C28.6248 4.70292 30.791 2.4911 33.4632 2.4911C36.1354 2.4911 38.3017 4.70292 38.3017 7.43137C38.3017 7.73811 38.27 8.04486 38.2226 8.35161V8.33547Z" fill="white"/>
<path d="M33.4316 8.38391C33.1628 8.38391 32.9414 8.15788 32.9414 7.88343V5.46173C32.9414 5.18727 33.1628 4.96124 33.4316 4.96124C33.7004 4.96124 33.9217 5.18727 33.9217 5.46173V7.88343C33.9217 8.15788 33.7004 8.38391 33.4316 8.38391Z" fill="#C2D100"/>
<path d="M35.582 8.3839H33.4316C33.1628 8.3839 32.9414 8.15788 32.9414 7.88342C32.9414 7.60896 33.1628 7.38293 33.4316 7.38293H35.582C35.8508 7.38293 36.0722 7.60896 36.0722 7.88342C36.0722 8.15788 35.8508 8.3839 35.582 8.3839Z" fill="#C2D100"/>
<path d="M41.1318 21.0736C40.863 21.0736 40.6416 20.8476 40.6416 20.5731V18.1514C40.6416 17.877 40.863 17.6509 41.1318 17.6509C41.4006 17.6509 41.6219 17.877 41.6219 18.1514V20.5731C41.6219 20.8476 41.4006 21.0736 41.1318 21.0736Z" fill="#C2D100"/>
<path d="M43.2822 21.0736H41.1318C40.863 21.0736 40.6416 20.8476 40.6416 20.5731C40.6416 20.2987 40.863 20.0726 41.1318 20.0726H43.2822C43.551 20.0726 43.7724 20.2987 43.7724 20.5731C43.7724 20.8476 43.551 21.0736 43.2822 21.0736Z" fill="#C2D100"/>
<path d="M25.8261 21.0736C25.5573 21.0736 25.3359 20.8476 25.3359 20.5731V18.1514C25.3359 17.877 25.5573 17.6509 25.8261 17.6509C26.0949 17.6509 26.3163 17.877 26.3163 18.1514V20.5731C26.3163 20.8476 26.0949 21.0736 25.8261 21.0736Z" fill="#C2D100"/>
<path d="M27.9765 21.0736H25.8261C25.5573 21.0736 25.3359 20.8476 25.3359 20.5731C25.3359 20.2987 25.5573 20.0726 25.8261 20.0726H27.9765C28.2453 20.0726 28.4667 20.2987 28.4667 20.5731C28.4667 20.8476 28.2453 21.0736 27.9765 21.0736Z" fill="#C2D100"/>
<path d="M10.0458 21.0736C9.77703 21.0736 9.55566 20.8476 9.55566 20.5731V18.1514C9.55566 17.877 9.77703 17.6509 10.0458 17.6509C10.3146 17.6509 10.536 17.877 10.536 18.1514V20.5731C10.536 20.8476 10.3146 21.0736 10.0458 21.0736Z" fill="#C2D100"/>
<path d="M12.1962 21.0736H10.0458C9.77703 21.0736 9.55566 20.8476 9.55566 20.5731C9.55566 20.2987 9.77703 20.0726 10.0458 20.0726H12.1962C12.465 20.0726 12.6864 20.2987 12.6864 20.5731C12.6864 20.8476 12.465 21.0736 12.1962 21.0736Z" fill="#C2D100"/>
<path d="M17.9365 8.38391C17.6677 8.38391 17.4463 8.15788 17.4463 7.88343V5.46173C17.4463 5.18727 17.6677 4.96124 17.9365 4.96124C18.2053 4.96124 18.4266 5.18727 18.4266 5.46173V7.88343C18.4266 8.15788 18.2053 8.38391 17.9365 8.38391Z" fill="#C2D100"/>
<path d="M20.0869 8.3839H17.9365C17.6677 8.3839 17.4463 8.15788 17.4463 7.88342C17.4463 7.60896 17.6677 7.38293 17.9365 7.38293H20.0869C20.3557 7.38293 20.577 7.60896 20.577 7.88342C20.577 8.15788 20.3557 8.3839 20.0869 8.3839Z" fill="#C2D100"/>
</svg>
