<svg width="32" height="30" viewBox="0 0 32 30" fill="none" xmlns="http://www.w3.org/2000/svg">
<path d="M4.29563 21.08C4.40613 21.112 4.53242 21.16 4.64293 21.192V22.296C6.36365 22.808 8.27382 23.176 10.0735 23.384V22.264C10.9733 22.36 11.8889 22.392 12.7887 22.392C13.6886 22.392 14.6042 22.344 15.504 22.264V23.384C17.2879 23.176 19.1823 22.824 20.9346 22.296V21.192C21.0609 21.16 21.1714 21.112 21.2819 21.08C21.8502 20.856 22.4343 20.76 22.9868 20.488C23.3973 20.328 24.0919 20.04 24.5497 19.832V14.6H26.3651V16.44H31.7957V13.688C31.843 11.544 30.1854 9.56001 28.1648 9.19201V7.25601H29.0804V5.43201H25.4969V7.25601H26.3651V9.09601H24.5497V3.86401C23.413 3.35201 22.1343 2.87201 20.9188 2.50401V1.40001C19.1981 0.888011 17.2879 0.520012 15.4882 0.312012V1.43201C13.6728 1.25601 11.8573 1.25601 10.0419 1.43201V0.312012C8.25803 0.520012 6.36365 0.872011 4.61136 1.40001V2.50401C3.44316 2.85601 2.13288 3.35201 0.980469 3.86401V19.848C1.46985 20.056 1.9908 20.28 2.54333 20.504M24.5339 10.936H27.2492C28.6542 10.904 29.996 12.184 29.9644 13.688V14.616H28.149V12.776H24.5339V10.936ZM20.903 4.42401C21.5187 4.61601 22.1186 4.84001 22.7184 5.08001V6.96801C22.1186 6.85601 21.5029 6.74401 20.903 6.64801V4.42401ZM20.903 8.50401C21.5187 8.60001 22.1186 8.71201 22.7184 8.84001V10.952H20.903V8.52001V8.50401ZM20.903 12.776H22.7184V14.888C22.1186 15.016 21.5029 15.112 20.903 15.224V12.792V12.776ZM20.903 17.064C21.5187 16.968 22.1186 16.856 22.7184 16.744V18.632C22.1186 18.872 21.5029 19.096 20.903 19.288V17.064ZM17.2721 2.42401C17.8878 2.53601 18.4877 2.66401 19.0876 2.80801V20.904C18.4877 21.048 17.872 21.176 17.2721 21.288V2.42401ZM10.0261 3.27201C11.8416 3.08001 13.657 3.08001 15.4724 3.27201V6.10401C13.657 6.00801 11.8416 6.00801 10.0261 6.10401V3.27201ZM10.0261 7.92801C11.8416 7.83201 13.657 7.83201 15.4724 7.92801V10.936H10.0261V7.92801ZM10.0261 12.776H15.4724V15.784C13.657 15.88 11.8416 15.88 10.0261 15.784V12.776ZM10.0261 17.624C10.9259 17.672 11.8416 17.688 12.7414 17.688C13.6412 17.688 14.5568 17.656 15.4567 17.624V20.456C13.6412 20.648 11.8258 20.648 10.0103 20.456V17.624H10.0261ZM6.39523 2.80801C6.99511 2.66401 7.61079 2.53601 8.21067 2.42401V21.288C7.595 21.176 6.99511 21.048 6.39523 20.904V2.80801ZM2.76434 5.08001C3.36423 4.84001 3.9799 4.61601 4.57978 4.42401V6.66401C3.96411 6.76001 3.36423 6.87201 2.76434 6.98401V5.09601V5.08001ZM2.76434 8.84001C3.36423 8.71201 3.9799 8.60001 4.57978 8.50401V10.936H2.76434V8.84001ZM2.76434 12.776H4.57978V15.208C3.96411 15.112 3.36423 15 2.76434 14.872V12.776ZM2.76434 16.744C3.36423 16.856 3.9799 16.968 4.57978 17.064V19.304C3.96411 19.112 3.36423 18.888 2.76434 18.648V16.76V16.744Z" fill="white"/>
<path d="M2.62285 20.52L2.16504 20.344C2.30712 20.408 2.46498 20.472 2.62285 20.52Z" fill="#C2D100"/>
<path d="M22.0088 20.824C21.6773 20.92 21.5037 20.984 21.188 21.112L22.1983 24.104H2.98615L4.07542 20.968L2.37048 20.36L0.807617 24.856V29.64H5.71721C7.99046 27.128 9.75855 25.976 12.6001 25.928C15.9784 25.992 17.5571 27.608 19.483 29.64H24.3926V24.856L22.8771 20.52C22.6245 20.6 22.2772 20.728 22.0246 20.808L22.0088 20.824ZM4.95946 27.816H2.60728V25.96H6.96434C6.25395 26.472 5.55934 27.208 4.95946 27.816ZM22.5772 27.816H20.225C19.6251 27.208 18.9305 26.472 18.2201 25.96H22.5772V27.816Z" fill="#C2D100"/>
</svg>
