<svg width="43" height="38" viewBox="0 0 43 38" fill="none" xmlns="http://www.w3.org/2000/svg">
<path d="M28.3388 31.2771H29.0064C29.052 31.8744 29.1127 32.4556 29.2037 33.0368H28.5361C28.6878 33.9087 28.9002 34.845 29.1582 35.6684H29.8258C30.0079 36.2496 30.2355 36.8793 30.4631 37.4282H39.8704C40.098 36.8631 40.3256 36.2335 40.5077 35.6684H41.1753C41.4332 34.8128 41.6457 33.8925 41.7974 33.0368H41.1298C41.2208 32.4556 41.2967 31.8583 41.327 31.2771H41.9947C42.0402 30.4053 42.0402 29.485 41.9947 28.6455H41.327C41.2815 28.0481 41.2208 27.4669 41.1298 26.8857H41.7974C41.6457 26.0139 41.4332 25.0775 41.1753 24.2542H40.5077C40.3256 23.6729 40.098 23.0433 39.8704 22.4944H30.4631C30.2355 23.0594 30.0079 23.6891 29.8258 24.2542H29.1582C28.9002 25.1098 28.6878 26.0301 28.5361 26.8857H29.2037C29.1127 27.4669 29.0368 28.0643 29.0064 28.6455H28.3388C28.2933 29.5012 28.2933 30.4376 28.3388 31.2771ZM29.1278 29.5173H41.1905C41.1905 29.8079 41.1905 30.1147 41.1905 30.4053H29.1278C29.1278 30.1147 29.1278 29.8079 29.1278 29.5173ZM32.7542 33.0368C32.7087 32.4556 32.6632 31.8583 32.648 31.2771H34.7571V33.0368H32.7542ZM35.5764 33.0368V31.2771H37.6855C37.6703 31.8744 37.6248 32.4556 37.5793 33.0368H35.5764ZM37.5793 26.8696C37.6248 27.4508 37.6703 28.0481 37.6855 28.6294H35.5764V26.8696H37.5793ZM34.7571 26.8696V28.6294H32.648C32.6632 28.032 32.7087 27.4508 32.7542 26.8696H34.7571ZM30.0534 26.8696H31.9349C31.8893 27.4508 31.8438 28.0481 31.8286 28.6294H29.841C29.8865 28.032 29.9472 27.4508 30.0534 26.8696ZM31.0093 23.35H32.4052C32.3445 23.6407 32.299 23.9313 32.2535 24.238H30.7058C30.7969 23.9474 30.9031 23.6407 31.0245 23.35H31.0093ZM35.5764 24.238V23.35H37.0937C37.1544 23.6407 37.1999 23.9313 37.2455 24.238H35.5764ZM34.7571 24.238H33.088C33.1335 23.9474 33.1942 23.6407 33.2397 23.35H34.7571V24.238ZM39.6428 24.238H38.0952C38.0496 23.9474 38.0041 23.6407 37.9434 23.35H39.3394C39.4456 23.6407 39.5518 23.9313 39.658 24.238H39.6428ZM40.7808 25.9978H29.5527C29.6134 25.7072 29.6892 25.4004 29.7651 25.1098H40.5532C40.6291 25.4004 40.7049 25.691 40.7656 25.9978H40.7808ZM40.5077 28.6455H38.52C38.5048 28.0481 38.4593 27.4669 38.4138 26.8857H40.2953C40.4015 27.4669 40.4622 28.0643 40.5077 28.6455ZM40.2953 33.053H38.4138C38.4593 32.4718 38.5048 31.8744 38.52 31.2932H40.5077C40.4622 31.8906 40.3863 32.4718 40.2953 33.053ZM39.3394 36.5725H37.9434C38.0041 36.2819 38.0496 35.9913 38.0952 35.6846H39.6428C39.5518 35.9752 39.4456 36.2819 39.3242 36.5725H39.3394ZM34.7722 35.6846V36.5725H33.2549C33.1942 36.2819 33.1487 35.9913 33.1032 35.6846H34.7722ZM35.5916 35.6846H37.2606C37.2151 35.9752 37.1544 36.2819 37.1089 36.5725H35.5916V35.6846ZM30.7058 35.6846H32.2535C32.299 35.9752 32.3445 36.2819 32.4052 36.5725H31.0093C30.9031 36.2819 30.7969 35.9913 30.6907 35.6846H30.7058ZM29.5679 33.9248H40.796C40.7353 34.2154 40.6594 34.5222 40.5835 34.8128H29.7954C29.7196 34.5222 29.6437 34.2316 29.583 33.9248H29.5679ZM29.841 31.2771H31.8286C31.8438 31.8744 31.8893 32.4556 31.9349 33.0368H30.0534C29.9472 32.4556 29.8865 31.8583 29.841 31.2771Z" fill="white"/>
<path d="M8.00708 10.741C6.48977 10.741 5.26074 9.43332 5.26074 7.81885C5.26074 6.20438 6.48977 4.89667 8.00708 4.89667C9.52439 4.89667 10.7534 6.20438 10.7534 7.81885C10.7534 9.43332 9.52439 10.741 8.00708 10.741ZM8.00708 6.1721C7.15738 6.1721 6.45942 6.91475 6.45942 7.81885C6.45942 8.72295 7.15738 9.4656 8.00708 9.4656C8.85678 9.4656 9.55474 8.72295 9.55474 7.81885C9.55474 6.91475 8.85678 6.1721 8.00708 6.1721Z" fill="white"/>
<path d="M8.00706 18.7649C7.85533 18.7649 7.71877 18.7004 7.59739 18.5873C7.32427 18.3129 0.99707 11.9842 0.99707 7.6897C0.99707 5.7362 1.72538 3.89571 3.03027 2.52341C4.33516 1.15112 6.04972 0.408464 7.8705 0.408464H8.02223C9.82784 0.36003 11.5727 1.08654 12.908 2.42655C14.2432 3.7827 14.9867 5.5909 15.0322 7.5444V7.6897C15.0322 12.0326 8.68985 18.329 8.41673 18.5873C8.29535 18.7004 8.15879 18.7488 8.00706 18.7488V18.7649ZM7.8705 1.66775C6.35319 1.66775 4.94209 2.29739 3.86479 3.42751C2.7875 4.55764 2.19575 6.07524 2.18057 7.70585C2.18057 10.5957 6.0649 15.2454 8.00706 17.2635C9.94922 15.2454 13.8335 10.628 13.8335 7.70585V7.59284C13.8032 5.97837 13.1659 4.46077 12.0735 3.34679C10.981 2.23281 9.52437 1.63546 8.02223 1.66775H7.90085C7.90085 1.66775 7.88567 1.66775 7.8705 1.66775Z" fill="white"/>
<path d="M11.3151 37.1537C11.0724 37.1537 10.8296 37.1537 10.5868 37.1537C10.253 37.1537 9.99506 36.847 10.0102 36.4918C10.0254 36.1366 10.3137 35.8783 10.6323 35.8783C11.8765 35.9267 13.2876 35.846 14.7898 35.6361C15.1236 35.5877 15.4119 35.8299 15.4574 36.185C15.5029 36.5402 15.2753 36.847 14.9415 36.8954C13.6518 37.073 12.4379 37.1699 11.3151 37.1699V37.1537ZM6.42938 36.3142C6.35351 36.3142 6.27765 36.3142 6.20178 36.2658C4.33548 35.4424 3.31888 34.054 3.30371 32.3749C3.30371 32.0197 3.56165 31.7453 3.89546 31.7453C4.22927 31.7453 4.48722 32.0197 4.48722 32.3749C4.48722 33.8441 5.67072 34.6674 6.6418 35.1034C6.94526 35.2325 7.097 35.6038 6.96044 35.9267C6.8694 36.1689 6.6418 36.3142 6.4142 36.3142H6.42938ZM19.0686 36.0559C18.7955 36.0559 18.5527 35.8622 18.492 35.5715C18.4162 35.2325 18.6134 34.8935 18.932 34.8127C20.1914 34.4899 21.5267 34.1024 22.8771 33.6503C23.1957 33.5535 23.5295 33.7311 23.6205 34.0701C23.7268 34.4091 23.5447 34.7643 23.226 34.8612C21.8453 35.3294 20.4797 35.733 19.19 36.0559C19.1445 36.0559 19.0989 36.072 19.0534 36.072L19.0686 36.0559ZM5.76176 29.033C5.61003 29.033 5.47347 28.9684 5.35209 28.8554C5.10932 28.6132 5.09414 28.2096 5.32174 27.9674C6.20178 26.9664 7.35494 25.9816 8.75087 25.0291C9.02398 24.8354 9.38814 24.9322 9.57022 25.2228C9.7523 25.5134 9.66125 25.917 9.38814 26.0946C8.06808 26.9826 6.99078 27.9028 6.18661 28.8392C6.06522 28.9684 5.91349 29.033 5.74659 29.033H5.76176ZM12.8324 24.0281C12.6048 24.0281 12.3924 23.899 12.2862 23.6568C12.1496 23.3339 12.2862 22.9626 12.5745 22.8173C13.8035 22.2038 15.1539 21.6226 16.5802 21.0736C16.8837 20.9606 17.2327 21.1221 17.3389 21.4611C17.4451 21.784 17.2933 22.1553 16.9747 22.2684C15.594 22.8011 14.2739 23.3662 13.0752 23.9635C12.9993 24.012 12.9083 24.0281 12.8173 24.0281H12.8324ZM20.7832 20.7346C20.5404 20.7346 20.328 20.5893 20.2369 20.3471C20.1155 20.0242 20.2521 19.6529 20.5707 19.5238L22.1943 18.8134C23.044 18.5228 23.833 18.2322 24.5916 17.9416C24.8951 17.8286 25.2441 17.99 25.3503 18.3129C25.4565 18.6358 25.3048 19.0071 25.0013 19.1201C24.2275 19.4269 23.4233 19.7175 22.6039 19.992L21.0259 20.6862C21.0259 20.6862 20.8742 20.7346 20.7983 20.7346H20.7832ZM28.7187 17.3927C28.4911 17.3927 28.2939 17.2635 28.1877 17.0375C28.0511 16.7307 28.1725 16.3433 28.4608 16.198C29.8415 15.4876 31.0402 14.7288 32.0568 13.97C32.3299 13.7601 32.6941 13.8247 32.8913 14.1153C33.0886 14.4059 33.0279 14.7934 32.7548 15.0033C31.6927 15.8105 30.4181 16.6016 28.9918 17.3442C28.9008 17.3927 28.8249 17.4088 28.7339 17.4088L28.7187 17.3927ZM35.4101 11.9196C35.3039 11.9196 35.1976 11.8873 35.1066 11.8228C34.8335 11.6452 34.7425 11.2577 34.9094 10.9509C35.2583 10.3375 35.4404 9.75625 35.4404 9.22347C35.4404 8.62612 35.1976 8.09335 34.7273 7.65744C34.4845 7.43141 34.4542 7.0278 34.6666 6.76948C34.879 6.51117 35.2583 6.47888 35.5011 6.70491C36.2446 7.38298 36.6239 8.27094 36.6239 9.23962C36.6239 9.99841 36.3811 10.8056 35.9108 11.629C35.8046 11.8228 35.6073 11.9358 35.3949 11.9358L35.4101 11.9196ZM18.5527 8.3678C18.2948 8.3678 18.0672 8.19021 17.9913 7.9319C17.8851 7.59286 18.0672 7.23768 18.3858 7.14081C19.8273 6.65647 21.2232 6.25285 22.5584 5.92996C22.8771 5.84924 23.1957 6.05912 23.2716 6.4143C23.3474 6.75334 23.1502 7.09238 22.8164 7.1731C21.5115 7.47985 20.1459 7.88347 18.75 8.35166C18.6893 8.36781 18.6286 8.38395 18.5679 8.38395L18.5527 8.3678ZM26.8828 6.39816C26.5793 6.39816 26.3214 6.15599 26.291 5.83309C26.2607 5.47791 26.4883 5.17116 26.8221 5.13887C28.4304 4.96128 29.9174 4.92899 31.2071 5.07429C31.5409 5.10658 31.7685 5.41333 31.7382 5.76852C31.7078 6.1237 31.4044 6.38201 31.0857 6.33358C29.887 6.20442 28.4759 6.22057 26.9435 6.39816C26.9283 6.39816 26.8979 6.39816 26.8828 6.39816Z" fill="#C2D100"/>
</svg>
