<svg width="31" height="33" viewBox="0 0 31 33" fill="none" xmlns="http://www.w3.org/2000/svg">
<path d="M12.7574 20.9643C15.2991 20.9643 17.3742 18.8897 17.3742 16.3487C17.3742 13.8077 15.2991 11.733 12.7574 11.733C10.2158 11.733 8.14062 13.8077 8.14062 16.3487C8.14062 18.8897 10.2158 20.9643 12.7574 20.9643ZM12.7574 13.5825C14.2856 13.5825 15.5243 14.8208 15.5243 16.3487C15.5243 17.8765 14.2856 19.1148 12.7574 19.1148C11.2292 19.1148 9.99056 17.8765 9.99056 16.3487C9.99056 14.8208 11.2292 13.5825 12.7574 13.5825Z" fill="white"/>
<path d="M14.6067 15.4319H13.6737L11.8398 14.4991V17.2653H14.6067V15.4319Z" fill="#C2D100"/>
<path d="M27.524 19.2274V3.4345C27.524 1.90668 26.2854 0.668335 24.7572 0.668335H14.5906C13.0624 0.668335 11.8237 1.90668 11.8237 3.4345V4.39944C9.05689 4.64067 6.59567 5.92726 4.9066 8.05013H3.50709V9.88352H4.4401V19.1309H3.50709C1.97888 19.1309 0.740234 20.3692 0.740234 21.897H2.57408C2.57408 21.3824 2.99233 20.9643 3.50709 20.9643H4.4401V22.8137H3.50709V24.6471H4.4401V32.0289H9.97381V28.33L12.7407 30.4046L15.5075 28.33V32.0289H21.0412V24.6471H21.9742V22.8137H21.0412V9.88352H21.9742V8.05013H20.5747C18.8857 5.92726 16.4084 4.62459 13.6576 4.39944V3.4345C13.6576 2.91986 14.0758 2.50172 14.5906 2.50172H24.7572C25.2719 2.50172 25.6902 2.91986 25.6902 3.4345V19.2274C24.5963 19.4364 23.5668 20.1762 22.9233 21.1251V32.045H30.307V21.1251C29.6635 20.1601 28.634 19.4364 27.5401 19.2274H27.524ZM8.13996 30.2116H6.29003V25.5799L8.13996 26.963V30.1955V30.2116ZM8.13996 24.6632H17.4057L12.7728 28.137L8.13996 24.6632ZM17.3896 30.2116V26.979L19.2396 25.596V30.2277H17.3896V30.2116ZM19.2396 22.8298H6.30612V9.8996H19.2396V22.8298ZM7.49651 8.05013C8.94428 6.86004 10.7781 6.20066 12.7728 6.20066C14.7675 6.20066 16.6014 6.86004 18.0492 8.05013H7.49651ZM26.6232 20.9643C27.331 20.9643 27.9905 21.2537 28.4731 21.7684V22.8298H24.7733V21.7684C25.2559 21.2537 25.9154 20.9643 26.6232 20.9643ZM24.7733 30.2116V24.6632H28.4731V30.2116H24.7733Z" fill="white"/>
</svg>
