<svg width="47" height="31" viewBox="0 0 47 31" fill="none" xmlns="http://www.w3.org/2000/svg">
<path d="M24.9308 24.3228C24.7119 24.3228 24.493 24.2434 24.3366 24.0848L12.4513 12.5011L7.14981 17.6582C6.8214 17.9756 6.30533 17.9756 5.96128 17.6582L1.47302 13.2945C1.12898 12.9613 1.12897 12.4218 1.44175 12.0727C1.77015 11.7236 2.30187 11.7236 2.64591 12.041L6.53991 15.8334L11.8414 10.6763C12.1698 10.359 12.6859 10.359 13.0299 10.6763L24.5868 21.9426L32.2028 2.34564C32.3122 2.07588 32.5312 1.88547 32.8127 1.82199C33.0785 1.75852 33.3756 1.83786 33.5789 2.04415L39.4121 7.72488L43.3061 3.44053C43.6345 3.09143 44.1662 3.07556 44.5103 3.39292C44.8543 3.71028 44.87 4.26566 44.5572 4.61476L40.0689 9.53383C39.9125 9.70838 39.6936 9.80359 39.4747 9.80359C39.2557 9.80359 39.0211 9.72425 38.8648 9.56557L33.3287 4.17045L25.7128 23.7674C25.6033 24.0372 25.3843 24.2276 25.1029 24.291C25.0403 24.291 24.9777 24.3069 24.9152 24.3069L24.9308 24.3228Z" fill="white"/>
<path d="M45.4181 30.416H0.191406V1.45694C0.191406 0.774619 0.738756 0.235107 1.39557 0.235107C2.05239 0.235107 2.59974 0.790487 2.59974 1.45694V27.9723H45.4337C46.1062 27.9723 46.6379 28.5277 46.6379 29.1942C46.6379 29.8606 46.0905 30.416 45.4337 30.416H45.4181Z" fill="#C2D100"/>
<path d="M23.8523 22.1806C28.0671 22.1806 31.4839 18.7137 31.4839 14.4371C31.4839 10.1604 28.0671 6.69348 23.8523 6.69348C19.6375 6.69348 16.2207 10.1604 16.2207 14.4371C16.2207 18.7137 19.6375 22.1806 23.8523 22.1806Z" fill="#C2D100"/>
<path d="M27.4176 16.6268L28.6218 17.801C27.6835 18.9276 26.2604 19.5306 24.587 19.5306C22.0067 19.5306 19.9737 18.0073 19.3481 15.754H17.6904V14.7226H19.1605C19.1605 14.5639 19.1605 14.4052 19.1605 14.2148C19.1605 14.0244 19.1605 13.8816 19.1605 13.707H17.6904V12.6756H19.3481C19.9737 10.4224 22.0067 8.89905 24.587 8.89905C26.2604 8.89905 27.6835 9.50203 28.6218 10.6287L27.4176 11.787C26.6826 10.9778 25.7599 10.5811 24.6965 10.5811C23.1483 10.5811 21.8972 11.3903 21.3498 12.6756H25.5253V13.707H21.0684C21.0684 13.8657 21.0371 14.0244 21.0371 14.2148C21.0371 14.4052 21.0371 14.548 21.0684 14.7226H25.5253V15.754H21.3498C21.8972 17.0393 23.1326 17.8486 24.6965 17.8486C25.7599 17.8486 26.667 17.4519 27.4176 16.6268Z" fill="white"/>
<path d="M24.5873 19.8162C21.9913 19.8162 19.8801 18.3405 19.1451 16.0396H17.6907C17.5343 16.0396 17.4092 15.9127 17.4092 15.754V14.7226C17.4092 14.5639 17.5343 14.437 17.6907 14.437H18.8636V13.9926H17.6907C17.5343 13.9926 17.4092 13.8657 17.4092 13.707V12.6756C17.4092 12.5169 17.5343 12.39 17.6907 12.39H19.1451C19.8801 10.0891 21.9913 8.6134 24.5873 8.6134C26.3388 8.6134 27.8557 9.26399 28.8253 10.4382C28.9191 10.5493 28.9035 10.7238 28.8097 10.8191L27.6055 11.9774C27.6055 11.9774 27.4804 12.0568 27.4022 12.0568C27.324 12.0568 27.2615 12.025 27.2145 11.9615C26.5421 11.2158 25.682 10.8349 24.6967 10.8349C23.4457 10.8349 22.3979 11.4062 21.8036 12.3741H25.5256C25.682 12.3741 25.8071 12.5011 25.8071 12.6597V13.6912C25.8071 13.8498 25.682 13.9768 25.5256 13.9768H21.3345C21.3345 13.9768 21.3345 14.1196 21.3345 14.1989C21.3345 14.2783 21.3345 14.3417 21.3345 14.4211H25.5256C25.682 14.4211 25.8071 14.548 25.8071 14.7067V15.7381C25.8071 15.8968 25.682 16.0237 25.5256 16.0237H21.8036C22.3822 16.9917 23.4457 17.5629 24.6967 17.5629C25.6976 17.5629 26.5421 17.1821 27.2145 16.4363C27.2615 16.3728 27.3397 16.3411 27.4178 16.3411C27.496 16.3411 27.5586 16.3728 27.6055 16.4204L28.8097 17.6105C28.9191 17.7058 28.9191 17.8803 28.8253 17.9914C27.8557 19.1656 26.3388 19.8162 24.5873 19.8162ZM17.9722 15.4842H19.3484C19.4735 15.4842 19.5829 15.5636 19.6142 15.6905C20.2085 17.8644 22.1633 19.2608 24.5873 19.2608C26.0729 19.2608 27.3553 18.753 28.231 17.8327L27.4178 17.0393C26.6672 17.7692 25.7602 18.1501 24.6967 18.1501C23.0547 18.1501 21.7098 17.3091 21.0999 15.8809C21.0686 15.8016 21.0686 15.6905 21.1155 15.6112C21.1624 15.5318 21.2563 15.4842 21.3501 15.4842H25.2441V15.0082H21.0686C20.9279 15.0082 20.8027 14.8971 20.7871 14.7543C20.7871 14.5798 20.7558 14.4211 20.7558 14.2307C20.7558 14.0403 20.7558 13.8657 20.7871 13.707C20.7871 13.5642 20.9122 13.4531 21.0686 13.4531H25.2441V12.9771H21.3501C21.2563 12.9771 21.1624 12.9295 21.1155 12.8502C21.0686 12.7708 21.053 12.6756 21.0999 12.5804C21.7098 11.1681 23.0547 10.3113 24.6967 10.3113C25.7602 10.3113 26.6672 10.6762 27.4178 11.4062L28.231 10.6128C27.3553 9.69242 26.0729 9.18465 24.5873 9.18465C22.1633 9.18465 20.2241 10.581 19.6142 12.7549C19.5829 12.8819 19.4735 12.9612 19.3484 12.9612H17.9722V13.4373H19.1607C19.1607 13.4373 19.3171 13.469 19.364 13.5325C19.4109 13.5959 19.4422 13.6753 19.4422 13.7388C19.4422 13.8974 19.4422 14.0403 19.4422 14.2148C19.4422 14.3893 19.4422 14.5322 19.4422 14.6908C19.4422 14.7702 19.4265 14.8495 19.3796 14.8971C19.3327 14.9606 19.2545 14.9923 19.1763 14.9923H17.9878V15.4684L17.9722 15.4842Z" fill="white"/>
</svg>
