<svg width="35" height="36" viewBox="0 0 35 36" fill="none" xmlns="http://www.w3.org/2000/svg">
<path d="M31.8024 10.5432L34.8102 8.18597L32.7674 6.90309C33.1213 5.42779 32.9444 5.15518 32.88 4.20906C31.8667 4.14492 31.6898 3.96852 30.1778 4.32131L28.8911 2.28475L26.5267 5.28347L25.4973 2.82997L23.728 4.54581C22.3769 3.85627 22.0713 3.96852 21.1223 3.80816C20.8167 4.78635 20.6076 4.8986 20.5915 6.45409L18.4684 7.15967L22.2321 13.4297C21.5887 14.1834 21.0579 15.0012 20.6558 15.8832C20.4467 15.2738 20.2216 14.6805 19.9481 14.1032C17.7446 9.19623 18.3236 5.68436 18.6292 0.98584H14.3025C13.4017 4.57789 12.7262 8.05768 12.9514 11.0243C11.6003 11.2168 10.3618 11.762 9.33238 12.5638C8.41556 12.7883 7.04838 12.3553 6.64627 11.2488L4.81264 12.0987C5.52036 13.6061 6.63019 14.2315 7.57917 14.4881C7.14489 15.1616 6.80712 15.9153 6.59802 16.7171C5.68121 16.0917 4.49095 15.8351 3.23637 16.1558C1.8531 16.5086 0.743276 17.6472 0.389418 19.0263C-0.205707 21.3835 1.29015 23.5163 3.4133 24.0134C3.83149 25.8094 5.43994 27.1565 7.37007 27.1565C9.30021 27.1565 10.9087 25.8094 11.3268 24.0134C12.7423 23.6927 13.8843 22.6183 14.3025 21.2392C14.2221 22.8749 13.9486 24.5266 13.4822 26.1622C12.7101 29.1449 12.3884 32.3361 12.4528 35.431H20.5754C20.5272 32.4964 20.7684 29.4336 21.3636 26.5311C21.8139 24.5266 23.8727 23.2758 25.8833 23.837C26.1567 23.9172 26.4141 24.0776 26.6071 24.27C29.0198 26.5792 27.2183 28.8723 25.4008 28.4714C24.7252 28.3431 24.2105 27.6215 24.3713 26.8518C24.4839 26.3707 24.9504 26.0821 25.4329 26.1783L25.8672 24.2059C24.4035 23.8531 22.7146 24.8633 22.393 26.4188C21.8943 28.5356 23.6475 30.5881 25.8189 30.524C28.6659 30.524 31.0786 27.4451 29.0358 23.8691C28.5694 23.0673 27.8456 22.4098 26.9931 22.0731C25.1434 21.3515 23.2293 21.6561 21.7657 22.6343C21.7657 22.506 21.7657 20.1488 21.7657 20.1327C21.7657 18.1763 22.4412 16.3322 23.6797 14.8409L29.9044 18.5612L30.6121 16.4445C32.1401 16.4445 32.3492 16.2039 33.2661 15.9153C33.0891 14.905 33.2178 14.7126 32.5262 13.3175L34.2472 11.5535L31.7863 10.5272L31.8024 10.5432ZM4.34619 22.0891C3.22028 22.0891 2.30347 21.1751 2.30347 20.0526C2.30347 18.93 3.22028 18.016 4.34619 18.016C5.47211 18.016 6.38892 18.93 6.38892 20.0526C6.38892 21.1751 5.47211 22.0891 4.34619 22.0891ZM7.38616 25.1199C6.56585 25.1199 5.84205 24.6228 5.53645 23.9172C6.26025 23.6927 6.90363 23.2758 7.38616 22.7145C7.86869 23.2758 8.51207 23.6927 9.23587 23.9172C8.91418 24.6228 8.20647 25.1199 7.38616 25.1199ZM10.4261 22.0891C9.30021 22.0891 8.38339 21.1751 8.38339 20.0526C8.38339 18.93 9.30021 18.016 10.4261 18.016C11.552 18.016 12.4688 18.93 12.4688 20.0526C12.4688 21.1751 11.552 22.0891 10.4261 22.0891ZM10.4261 16.0115C9.87925 16.0115 9.36455 16.1237 8.88201 16.3162C9.65407 14.6003 11.2625 13.3175 13.1926 13.0288C13.3052 13.6542 13.45 14.2796 13.6269 14.9211C13.9808 16.1879 14.206 17.4868 14.2864 18.8178C13.7556 17.1982 12.2276 16.0115 10.4261 16.0115ZM19.3369 26.4028C18.8865 28.7119 18.6292 31.0532 18.5809 33.4105H14.5116C14.592 31.1494 14.8976 28.8883 15.4606 26.7075C16.6347 22.5702 16.683 18.3207 15.5892 14.4079C14.785 11.4894 14.592 8.76326 15.9109 3.0224H16.4578C16.1844 7.01535 16.0396 10.2867 18.0984 14.9531C19.6908 18.5612 20.0929 22.5542 19.3369 26.4188V26.4028ZM30.7247 12.2912L29.824 13.2212C30.1296 13.558 30.6282 14.007 30.8373 14.456C30.5799 14.5041 29.5505 14.1994 29.2771 14.1193L28.7946 15.5625L25.1273 13.3816L26.398 12.1148L24.9665 10.6876L23.6958 11.9544L21.5083 8.29822L22.9559 7.81714C22.8272 7.30399 22.6181 6.82292 22.6181 6.26166C22.9237 6.37391 23.5993 7.04742 23.8566 7.27192L24.7895 6.37391L25.9959 9.26038L28.7142 5.79662L29.438 6.93517C29.8401 6.7267 30.3869 6.34184 30.8695 6.22959C30.8373 6.5503 30.3387 7.36814 30.1618 7.65678L31.3037 8.3784L27.8295 11.0885L30.7247 12.2912Z" fill="#C2D100"/>
<path d="M13.7079 17.6312C12.968 16.6209 11.7777 15.9634 10.4266 15.9634C9.87977 15.9634 9.36507 16.0757 8.88253 16.2681C9.65459 14.5523 11.263 13.2694 13.1932 12.9808L13.2253 12.9487C13.2253 12.8685 13.2093 12.7723 13.1932 12.6921C13.0806 12.1309 12.9841 11.5696 12.9358 10.9923C11.6008 11.1847 10.3623 11.73 9.34898 12.5157C8.43217 12.7402 7.06499 12.3073 6.66288 11.2008L4.82925 12.0507C5.53696 13.5581 6.64679 14.1835 7.59577 14.44C7.16149 15.1135 6.82372 15.8672 6.61462 16.669C5.72998 16.0597 4.58798 15.8031 3.38165 16.0757C1.83754 16.4285 0.615119 17.7114 0.341683 19.2668C-0.0604284 21.5119 1.38717 23.5003 3.4299 23.9654C3.8481 25.7614 5.45654 27.1084 7.38668 27.1084C9.31681 27.1084 10.9253 25.7614 11.3435 23.9654C12.598 23.6767 13.6435 22.7947 14.1421 21.6402C13.9009 20.6139 13.7561 19.5395 13.7079 18.465C13.7079 18.1924 13.6918 17.9038 13.7079 17.6312ZM2.36832 19.5074C2.54525 18.8018 3.12429 18.2085 3.83201 18.0481C5.34395 17.6793 6.67896 19.0103 6.30902 20.5176C6.13209 21.2232 5.55305 21.8166 4.84533 21.9769C3.33339 22.3457 1.99838 21.0148 2.36832 19.5074ZM7.38668 25.0879C6.56637 25.0879 5.84257 24.5908 5.53696 23.8852C6.26077 23.6607 6.90414 23.2438 7.38668 22.6825C7.86921 23.2438 8.51259 23.6607 9.23639 23.8852C8.9147 24.5908 8.20698 25.0879 7.38668 25.0879ZM12.405 20.5176C12.2281 21.2232 11.6491 21.8166 10.9413 21.9769C9.4294 22.3457 8.09439 21.0148 8.46434 19.5074C8.64127 18.8018 9.22031 18.2085 9.92802 18.0481C11.44 17.6793 12.775 19.0103 12.405 20.5176Z" fill="white"/>
<path d="M10.6675 15.9794C10.5871 16.6529 10.5067 17.3264 10.4102 17.9839C10.5871 17.9839 10.7801 17.9839 10.9731 18.048C11.6808 18.2244 12.276 18.8017 12.4368 19.5073C12.6941 20.5336 12.1473 21.4637 11.2948 21.8486C11.5682 22.4259 11.8095 23.0833 12.0508 23.7248C13.7075 23.0192 14.8173 21.2392 14.4474 19.2507C14.1739 17.6953 12.9515 16.4124 11.4074 16.0596C11.15 15.9955 10.9088 15.9794 10.6675 15.9634V15.9794Z" fill="white"/>
</svg>
