<svg width="15" height="40" viewBox="0 0 15 40" fill="none" xmlns="http://www.w3.org/2000/svg">
<path d="M6.87207 33.7311V38.5906C6.87207 38.8974 7.13 39.1557 7.45241 39.1557C7.77483 39.1557 8.01664 38.8974 8.01664 38.5906V33.7311C7.82319 33.7311 7.62974 33.7472 7.45241 33.7472C7.27509 33.7472 7.06552 33.7472 6.87207 33.7311Z" fill="#C2D100"/>
<path d="M6.75849 32.165C6.90358 31.1317 7.11315 28.6616 5.95246 26.8695C4.79177 25.0613 2.18022 24.4155 1.13237 24.2218C0.842197 25.2228 0.277972 27.7252 1.43866 29.5172C2.59935 31.3254 5.56556 31.9712 6.75849 32.165Z" fill="#C2D100"/>
<path d="M13.6588 24.2218C12.611 24.4155 9.99944 25.0613 8.83875 26.8695C7.69418 28.6616 8.01659 31.1479 8.22616 32.165C9.37073 31.9712 12.1919 31.3254 13.3525 29.5172C14.4971 27.7252 13.949 25.2228 13.6588 24.2218Z" fill="#C2D100"/>
<path d="M6.60607 24.6355C6.864 23.7475 7.28314 21.6971 6.33202 20.228C5.89676 19.5499 5.21969 19.0817 4.5265 18.7427C4.4459 18.7104 4.36529 18.6619 4.28469 18.6135C3.52701 18.2745 2.76934 18.0969 2.31796 18C2.06003 18.888 1.64089 20.9383 2.59201 22.4075C3.54313 23.8928 5.67107 24.4579 6.60607 24.6355Z" fill="#C2D100"/>
<path d="M10.6273 18.6296C10.5467 18.6781 10.4661 18.7104 10.3855 18.7427C9.69229 19.0817 9.01522 19.566 8.57996 20.228C7.64496 21.6971 8.0641 23.7475 8.30591 24.6355C9.24091 24.4579 11.3688 23.8928 12.32 22.4075C13.255 20.9383 12.8358 18.888 12.594 18C12.1265 18.0807 11.385 18.2745 10.6273 18.6135V18.6296Z" fill="#C2D100"/>
<path d="M6.63005 18.3129C6.83962 17.5379 7.14591 15.9073 6.38824 14.7288C6.30763 14.5996 6.19479 14.4704 6.08195 14.3413C6.06583 14.3251 6.0497 14.309 6.03358 14.2929C5.17919 13.421 3.82505 13.0497 3.13186 12.9044C2.92229 13.6794 2.616 15.31 3.37367 16.4885C4.13134 17.6832 5.82401 18.1514 6.63005 18.3129Z" fill="#C2D100"/>
<path d="M8.79031 14.3574C8.67747 14.4704 8.58074 14.5996 8.48402 14.7449C7.72635 15.9234 8.03264 17.554 8.24221 18.329C9.04824 18.1675 10.7409 17.6993 11.4986 16.5046C12.2563 15.3261 11.95 13.6955 11.7404 12.9205C11.0311 13.0658 9.67695 13.4372 8.83867 14.309C8.82255 14.3251 8.80643 14.3413 8.79031 14.3574Z" fill="#C2D100"/>
<path d="M5.64648 10.7087C5.64648 12.0971 6.83942 13.3241 7.40364 13.8246C7.96787 13.3241 9.1608 12.081 9.1608 10.7087C9.1608 9.3364 7.96787 8.09326 7.40364 7.59277C6.83942 8.09326 5.64648 9.3364 5.64648 10.7087Z" fill="#C2D100"/>
<path d="M1.27809 13.7924C1.60051 13.7924 1.84232 13.5341 1.84232 13.2273V7.04394C1.84232 6.7372 1.58439 6.47888 1.27809 6.47888C0.971799 6.47888 0.713867 6.7372 0.713867 7.04394V13.2273C0.713867 13.5341 0.971799 13.7924 1.27809 13.7924Z" fill="white"/>
<path d="M4.08278 9.67547C4.40519 9.67547 4.647 9.41715 4.647 9.1104V2.927C4.647 2.62025 4.38907 2.36194 4.08278 2.36194C3.77648 2.36194 3.51855 2.62025 3.51855 2.927V9.1104C3.51855 9.41715 3.77648 9.67547 4.08278 9.67547Z" fill="white"/>
<path d="M13.6101 13.7924C13.9325 13.7924 14.1743 13.5341 14.1743 13.2273V7.04394C14.1743 6.7372 13.9164 6.47888 13.6101 6.47888C13.3038 6.47888 13.0459 6.7372 13.0459 7.04394V13.2273C13.0459 13.5341 13.3038 13.7924 13.6101 13.7924Z" fill="white"/>
<path d="M10.8054 9.67547C11.1278 9.67547 11.3697 9.41715 11.3697 9.1104V2.927C11.3697 2.62025 11.1117 2.36194 10.8054 2.36194C10.4991 2.36194 10.2412 2.62025 10.2412 2.927V9.1104C10.2412 9.41715 10.4991 9.67547 10.8054 9.67547Z" fill="white"/>
<path d="M7.45241 6.57578C7.77483 6.57578 8.01664 6.31746 8.01664 6.01072V0.747558C8.01664 0.440809 7.75871 0.182495 7.43629 0.182495C7.11388 0.182495 6.87207 0.440809 6.87207 0.747558V6.01072C6.87207 6.31746 7.13 6.57578 7.45241 6.57578Z" fill="white"/>
</svg>
