<svg width="37" height="28" viewBox="0 0 37 28" fill="none" xmlns="http://www.w3.org/2000/svg">
<path d="M36.6341 10.128C35.92 9.32802 35.92 9.07202 34.5242 8.20802L35.0922 5.74402L31.0671 6.22402L32.1383 3.64802L29.5252 3.61602C29.0221 2.11202 28.7137 1.96802 28.1294 1.15202C27.1719 1.64802 26.9284 1.58402 25.7436 2.72002L23.6174 1.68002L21.7347 9.05602H20.3389C19.8358 9.05602 19.3326 9.10402 18.862 9.18402C19.2515 8.51202 19.5923 7.82402 19.9007 7.10402C20.8258 4.89602 21.2965 2.57602 21.2965 0.192017H19.1541C19.1541 2.30402 18.7321 4.35202 17.9206 6.30402C17.3688 7.61602 16.6546 8.83202 15.7782 9.95202C15.5834 9.02402 15.129 8.12802 14.3986 7.40802C12.662 5.69602 9.95154 5.48802 7.98767 6.80002C6.02381 5.48802 3.31335 5.69602 1.57672 7.40802C-0.159924 9.12002 -0.370917 11.792 0.959965 13.728C-0.192384 15.408 -0.192384 17.632 0.959965 19.312C-0.370917 21.248 -0.159924 23.92 1.57672 25.632C3.31335 27.344 6.02381 27.552 7.98767 26.24C9.69185 27.376 11.9479 27.376 13.652 26.24C15.6159 27.552 18.3264 27.344 20.063 25.632C21.7996 23.92 22.0106 21.248 20.6797 19.312C22.0106 17.376 21.7996 14.704 20.063 12.992C19.4138 12.352 18.6347 11.92 17.807 11.712C18.6023 11.36 19.4625 11.184 20.3551 11.184H21.7022C21.7022 11.184 21.7347 11.216 21.7672 11.216L23.6337 18.56L25.7598 17.52C26.9122 18.64 27.253 18.624 28.1457 19.088C28.7786 18.224 29.0221 18.16 29.5415 16.624L32.1545 16.592L31.0833 14.016L35.1085 14.496L34.5404 12.032C35.92 11.2 35.9849 10.864 36.6503 10.112L36.6341 10.128ZM12.873 8.92802C14.0091 10.048 14.0091 11.888 12.873 13.008C11.7369 14.128 9.87038 14.128 8.73426 13.008C7.59814 11.888 7.59814 10.048 8.73426 8.92802C9.87038 7.80802 11.7369 7.80802 12.873 8.92802ZM12.1102 19.136C11.0065 19.68 9.64316 19.504 8.71803 18.592C7.79291 17.68 7.61437 16.336 8.1662 15.248C9.15625 15.84 10.3086 16.064 11.4123 15.92C11.2824 17.008 11.5096 18.144 12.0939 19.12L12.1102 19.136ZM2.51807 15.264C3.50812 15.856 4.66047 16.08 5.76412 15.936C5.63428 17.024 5.86151 18.16 6.4458 19.136C5.34214 19.68 3.97879 19.504 3.05367 18.592C2.14477 17.696 1.95001 16.336 2.50184 15.248L2.51807 15.264ZM3.0699 8.94402C3.9788 8.04802 5.35837 7.85602 6.46203 8.40002C5.48821 9.98402 5.48821 11.984 6.46203 13.568C5.35837 14.112 3.99503 13.936 3.0699 13.024C1.93378 11.904 1.93378 10.064 3.0699 8.94402ZM3.0699 24.192C2.16101 23.296 1.96624 21.936 2.51807 20.848C3.50812 21.44 4.66047 21.664 5.76412 21.52C5.63428 22.608 5.86151 23.744 6.4458 24.72C5.34214 25.264 3.97879 25.088 3.05367 24.176L3.0699 24.192ZM8.73426 24.192C7.82537 23.296 7.6306 21.936 8.18243 20.848C9.17248 21.44 10.3248 21.664 11.4285 21.52C11.2986 22.608 11.5259 23.744 12.1102 24.72C11.0065 25.264 9.64316 25.088 8.71803 24.176L8.73426 24.192ZM18.5373 24.192C17.4012 25.312 15.5347 25.312 14.3986 24.192C13.4897 23.296 13.295 21.936 13.8468 20.848C15.4536 21.808 17.4824 21.808 19.0892 20.848C19.641 21.936 19.4625 23.28 18.5373 24.192ZM18.5373 18.608C17.4012 19.728 15.5347 19.728 14.3986 18.608C13.2625 17.488 13.2625 15.648 14.3986 14.528C15.5347 13.408 17.4012 13.408 18.5373 14.528C19.6735 15.648 19.6735 17.488 18.5373 18.608ZM32.3331 12.064L27.7074 11.504L28.9734 14.528H27.5938C27.5614 15.024 27.5938 15.712 27.4315 16.208C27.2043 16.048 26.6687 15.072 26.5226 14.8L25.0619 15.52L23.9583 11.2H27.0745V9.08802H23.9583L25.0619 4.76802L26.5226 5.48802C26.8148 5.02402 27.0095 4.51202 27.4315 4.08002C27.5776 4.38402 27.5776 5.37602 27.5938 5.74402H28.9734L27.7074 8.78402L32.3331 8.22402L32.0085 9.60002C32.4629 9.74402 33.1608 9.87202 33.6153 10.144C33.3394 10.352 32.3655 10.592 32.0085 10.688L32.3331 12.064Z" fill="white"/>
<path d="M36.6332 10.144C35.9191 9.34401 35.9191 9.08801 34.5233 8.22401L35.0914 5.76001L31.0663 6.24001L32.1375 3.66401L29.5244 3.63201C29.0212 2.12801 28.7129 1.98401 28.1286 1.16801C27.171 1.66401 26.9275 1.60001 25.7427 2.73601L23.6166 1.69601L21.7339 9.07201H20.338C19.8349 9.07201 19.3318 9.12001 18.8611 9.20001C19.2506 8.52801 19.5915 7.84001 19.8998 7.12001C20.825 4.91201 21.2956 2.59201 21.2956 0.208008H19.1532C19.1532 2.32001 18.7313 4.36801 17.9197 6.32001C17.4491 7.42401 16.8648 8.46401 16.1831 9.42401C16.0533 9.72801 15.9234 10.032 15.7773 10.336C16.5077 10.736 17.1894 11.2 17.8386 11.712C18.6176 11.376 19.4778 11.184 20.3543 11.184H21.7014C21.7014 11.184 21.7339 11.216 21.7663 11.216L23.6328 18.56L25.759 17.52C26.9113 18.64 27.2521 18.624 28.1448 19.088C28.7778 18.224 29.0212 18.16 29.5406 16.624L32.1537 16.592L31.0825 14.016L35.1076 14.496L34.5395 12.032C35.9191 11.2 35.984 10.864 36.6495 10.112L36.6332 10.144ZM32.3322 12.064L27.7066 11.504L28.9726 14.528H27.593C27.5605 15.024 27.593 15.712 27.4307 16.208C27.2035 16.048 26.6679 15.072 26.5218 14.8L25.0611 15.52L23.9574 11.2H27.0736V9.08801H23.9574L25.0611 4.76801L26.5218 5.48801C26.8139 5.02401 27.0087 4.51201 27.4307 4.08001C27.5767 4.38401 27.5767 5.37601 27.593 5.74401H28.9726L27.7066 8.78401L32.3322 8.22401L32.0076 9.60001C32.4621 9.74401 33.16 9.87201 33.6144 10.144C33.3385 10.352 32.3647 10.592 32.0076 10.688L32.3322 12.064Z" fill="#C2D100"/>
</svg>
