<svg width="23" height="37" viewBox="0 0 23 37" fill="none" xmlns="http://www.w3.org/2000/svg">
<path d="M15.6365 27.7585V30.164H7.46761V28.0652C6.71479 27.7423 6.04206 27.3064 5.40137 26.8059V36.412H17.7027V26.3539C17.078 26.9028 16.3733 27.371 15.6365 27.7585ZM15.6365 34.3455H7.46761V32.2467H15.6365V34.3455Z" fill="white"/>
<path d="M11.2794 9.1598C12.4807 9.1598 13.6179 9.38583 14.6591 9.78944V0.926025H8.44434V9.628C9.35733 9.33739 10.3184 9.17594 11.2794 9.17594V9.1598ZM10.5106 2.99254H12.5928V7.99739H10.5106V2.99254Z" fill="white"/>
<path d="M12.161 28.6625L11.9688 28.4688C11.7125 28.598 11.3922 28.598 11.1359 28.4688L10.9437 28.6625L11.0398 28.4042C11.0398 28.4042 10.9437 28.3235 10.8956 28.2751L0.788689 17.4259C0.548429 17.1675 0.48436 16.8124 0.596481 16.4895V16.441L0.72462 16.2634L4.07225 11.6622C4.24844 11.4362 4.50472 11.2909 4.79303 11.2909H18.3277C18.616 11.2909 18.8883 11.4362 19.0485 11.6622L22.5242 16.441V16.4895C22.6204 16.8124 22.5563 17.1675 22.332 17.4097L12.2251 28.2589C12.2251 28.2589 12.129 28.3396 12.0809 28.3881L12.177 28.6464L12.161 28.6625ZM9.11772 17.7165L11.5684 24.8847L14.019 17.7165H9.11772ZM15.9091 17.7165L13.7628 23.9806L19.5931 17.7165H15.8931H15.9091ZM3.52766 17.7165L9.35798 23.9806L7.21165 17.7165H3.51164H3.52766ZM16.9502 15.9083H19.9134L18.3597 13.7772L16.9502 15.9083ZM9.74239 15.9083H13.3944L11.5684 13.648L9.74239 15.9083ZM3.22333 15.9083H6.18654L4.77701 13.7772L3.23935 15.9083H3.22333ZM13.4424 13.1152L15.2043 15.2948L16.6459 13.1152H13.4424ZM6.47485 13.1152L7.91642 15.2948L9.67833 13.1152H6.47485Z" fill="#C2D100"/>
</svg>
