<svg width="29" height="33" viewBox="0 0 29 33" fill="none" xmlns="http://www.w3.org/2000/svg">
<path d="M19.9301 13.0193L22.0623 16.4203C22.1425 16.5493 22.2707 16.6137 22.431 16.6137C22.5753 16.6137 22.7196 16.5331 22.7998 16.4203L24.9319 13.0193L26.487 10.6498C27.2084 9.56989 28.026 8.1031 28.026 6.50736C28.026 3.41258 25.5251 0.898071 22.4471 0.898071C19.369 0.898071 16.8682 3.41258 16.8682 6.50736C16.8682 8.1031 17.6858 9.55378 18.4072 10.6498L19.9622 13.0193H19.9301ZM22.415 3.18692C24.2426 3.18692 25.7335 4.68595 25.7335 6.52347C25.7335 8.361 24.2426 9.86003 22.415 9.86003C20.5874 9.86003 19.0965 8.361 19.0965 6.52347C19.0965 4.68595 20.5874 3.18692 22.415 3.18692Z" fill="#C2D100"/>
<path d="M27.3047 14.0671C27.0482 13.374 26.7596 12.7131 26.4069 12.0845L25.5252 13.4224L25.4771 13.503C26.1665 14.9375 26.5672 16.501 26.6474 18.129H22.5274C22.5274 17.8711 22.4953 17.6293 22.4793 17.3714C22.4632 17.3714 22.4312 17.3714 22.4151 17.3714C22.0143 17.3714 21.6456 17.1619 21.4372 16.8234L20.7158 15.679C20.9082 16.4849 21.0364 17.307 21.0685 18.129H14.9606V13.0678C16.2751 13.0355 17.5737 12.9227 18.8401 12.7293L17.9424 11.3753C16.9645 11.5042 15.9705 11.5848 14.9606 11.601V7.07162C15.4575 7.45847 15.9224 7.87756 16.3713 8.31276C16.195 7.74861 16.0988 7.16833 16.0988 6.53971C16.0988 6.02391 16.1629 5.52424 16.2751 5.05679C16.2751 5.05679 16.2591 5.05679 16.2431 5.05679C16.195 5.05679 16.1309 5.05679 16.0828 5.04068C16.0186 5.04068 15.9385 5.02456 15.8744 5.00844C15.8744 5.00844 15.7782 5.00844 15.7301 4.99232C15.6499 4.99232 15.5858 4.99232 15.5056 4.9762H15.4736C15.4736 4.9762 15.4094 4.9762 15.3614 4.9762C15.2812 4.9762 15.201 4.9762 15.1209 4.96008H15.0728C15.0728 4.96008 15.0087 4.96008 14.9926 4.96008C14.9125 4.96008 14.8163 4.96008 14.7361 4.96008H14.688C14.688 4.96008 14.6399 4.96008 14.6239 4.96008C14.4957 4.96008 14.3674 4.96008 14.2552 4.96008C14.143 4.96008 14.0147 4.96008 13.8865 4.96008C13.8704 4.96008 13.8384 4.96008 13.8223 4.96008H13.7743C13.6941 4.96008 13.5979 4.96008 13.5178 4.96008C13.4857 4.96008 13.4536 4.96008 13.4376 4.96008H13.3895C13.3895 4.96008 13.2292 4.96008 13.149 4.9762C13.117 4.9762 13.0849 4.9762 13.0368 4.9762H13.0047C13.0047 4.9762 12.8605 4.99232 12.7803 5.00844C12.7322 5.00844 12.6841 5.00844 12.636 5.02456C12.636 5.02456 12.4917 5.04068 12.4276 5.05679C12.3795 5.05679 12.3154 5.05679 12.2673 5.07291C12.2032 5.07291 12.1391 5.08903 12.0749 5.10515C12.0108 5.10515 11.9627 5.12127 11.8986 5.13739C11.8345 5.13739 11.7864 5.15351 11.7222 5.16963C11.6581 5.16963 11.594 5.20186 11.5299 5.20186C11.4978 5.20186 11.4497 5.20186 11.4176 5.21798H11.4016C11.4016 5.21798 11.2413 5.25022 11.1611 5.26634C11.1611 5.26634 11.1291 5.26634 11.1131 5.26634H11.081C9.62214 5.62095 8.24345 6.1851 6.96094 6.97491C5.67844 7.76472 4.54021 8.7802 3.5623 9.94074C3.54627 9.95686 3.53024 9.9891 3.51421 10.0213C2.52027 11.2464 1.73473 12.6164 1.2057 14.0832C0.644602 15.6145 0.37207 17.2264 0.37207 18.8543C0.37207 20.4823 0.660633 22.0942 1.2057 23.6255C1.73473 25.1084 2.52027 26.4623 3.51421 27.6874C3.53024 27.7196 3.54627 27.7357 3.5623 27.7679C4.52418 28.9446 5.67844 29.944 6.96094 30.7338C8.22742 31.5236 9.62214 32.1039 11.081 32.4424H11.1131C11.1131 32.4424 11.1451 32.4424 11.1611 32.4585C11.2413 32.4746 11.3215 32.4907 11.3856 32.5068H11.4016C11.4016 32.5068 11.4818 32.5229 11.5138 32.5391C11.578 32.5391 11.6421 32.5713 11.7062 32.5713C11.7703 32.5713 11.8184 32.5874 11.8826 32.6035C11.9467 32.6035 11.9948 32.6197 12.0589 32.6358C12.123 32.6358 12.1872 32.6519 12.2513 32.668C12.2994 32.668 12.3635 32.668 12.4116 32.6841C12.4757 32.6841 12.5559 32.7002 12.62 32.7164H12.636C12.636 32.7164 12.7322 32.7164 12.7643 32.7325C12.8444 32.7325 12.9086 32.7325 12.9887 32.7486H13.0208C13.0208 32.7486 13.0849 32.7486 13.133 32.7486C13.2132 32.7486 13.2933 32.7486 13.3735 32.7647H13.4216C13.4216 32.7647 13.4857 32.7647 13.5178 32.7647C13.5979 32.7647 13.6941 32.7647 13.7743 32.7647H13.8223C13.8223 32.7647 13.8704 32.7647 13.8865 32.7647C14.0147 32.7647 14.143 32.7647 14.2552 32.7647C14.3674 32.7647 14.4957 32.7647 14.6079 32.7647C14.6239 32.7647 14.656 32.7647 14.672 32.7647H14.7201C14.8003 32.7647 14.8964 32.7647 14.9766 32.7647C15.0087 32.7647 15.0407 32.7647 15.0728 32.7647H15.1209C15.1209 32.7647 15.2812 32.7647 15.3614 32.7486C15.3934 32.7486 15.4255 32.7486 15.4736 32.7486H15.5056C15.5056 32.7486 15.6499 32.7325 15.7301 32.7164C15.7782 32.7164 15.8263 32.7164 15.8744 32.7164H15.8904C15.8904 32.7164 16.0347 32.7003 16.0988 32.6841C16.1469 32.6841 16.211 32.6841 16.2591 32.668C16.3232 32.668 16.3874 32.6519 16.4515 32.6358C16.5156 32.6358 16.5637 32.6197 16.6278 32.6035C16.692 32.6035 16.74 32.5874 16.8042 32.5713C16.8683 32.5713 16.9324 32.5391 16.9965 32.5391C17.0286 32.5391 17.0767 32.5391 17.1088 32.5229H17.1248C17.1248 32.5229 17.2851 32.4907 17.3492 32.4746C17.3492 32.4746 17.3813 32.4746 17.3973 32.4746H17.4294C18.8882 32.12 20.2669 31.5558 21.5494 30.766C22.8319 29.9762 23.9702 28.9607 24.9481 27.8002C24.9641 27.7841 24.9801 27.7518 24.9962 27.7196C25.9901 26.4946 26.7757 25.1245 27.3047 23.6577C27.8658 22.1264 28.1383 20.5146 28.1383 18.8866C28.1383 17.2586 27.8497 15.6467 27.3047 14.1155V14.0671ZM11.7703 6.58807C10.3115 7.87756 9.09311 9.32823 8.14726 10.924C7.15332 10.6983 6.2235 10.4243 5.35781 10.1019C7.12125 8.29664 9.31754 7.08774 11.7703 6.58807ZM4.34784 11.2786C5.29368 11.6654 6.33572 11.9878 7.42585 12.2618C6.54413 14.1316 6.04716 16.0819 5.95097 18.0968H1.83092C1.9752 15.6145 2.84089 13.2612 4.34784 11.2786ZM4.34784 26.3817C2.84089 24.3992 1.9752 22.0458 1.83092 19.5636H5.95097C6.04716 21.5784 6.54413 23.5449 7.42585 25.3985C6.33572 25.6564 5.29368 25.9949 4.34784 26.3817ZM5.35781 27.5584C6.2235 27.236 7.15332 26.962 8.14726 26.7364C9.09311 28.3321 10.3115 29.7828 11.7703 31.0723C9.33358 30.5726 7.12125 29.3637 5.35781 27.5584ZM13.5178 30.6209C11.9627 29.3959 10.6802 27.9936 9.68627 26.4462C10.9367 26.2528 12.2192 26.1238 13.5178 26.0916V30.6209ZM13.5178 24.6248C11.9467 24.6571 10.4077 24.8182 8.91676 25.0923C8.03504 23.3353 7.52204 21.4817 7.42585 19.5636H13.5338V24.6248H13.5178ZM13.5178 18.0968H7.40982C7.50601 16.1948 8.01901 14.325 8.90073 12.5681C10.3916 12.8421 11.9306 13.0033 13.5017 13.0355V18.0968H13.5178ZM13.5178 11.5687C12.2192 11.5365 10.9367 11.4237 9.68627 11.2141C10.6802 9.66672 11.9627 8.2644 13.5178 7.03939V11.5687ZM14.9766 19.5636H21.0845C20.9883 21.4656 20.4753 23.3353 19.5936 25.0923C18.1027 24.8182 16.5637 24.6571 14.9926 24.6248V19.5636H14.9766ZM14.9766 30.6209V26.0916C16.2751 26.1238 17.5576 26.2367 18.8081 26.4462C17.8141 27.9936 16.5316 29.3959 14.9766 30.6209ZM16.724 31.0723C18.1829 29.7828 19.4012 28.3321 20.3471 26.7364C21.341 26.962 22.2708 27.236 23.1365 27.5584C21.3731 29.3637 19.1768 30.5726 16.724 31.0723ZM24.1465 26.3817C23.2007 25.9949 22.1586 25.6725 21.0685 25.3985C21.9502 23.5287 22.4472 21.5784 22.5434 19.5636H26.6634C26.5192 22.0458 25.6535 24.3992 24.1465 26.3817Z" fill="white"/>
</svg>
