<svg width="43" height="40" viewBox="0 0 43 40" fill="none" xmlns="http://www.w3.org/2000/svg">
<path d="M21.434 22.2028C15.5422 22.2028 10.748 17.4078 10.748 11.515C10.748 5.62223 15.5422 0.827271 21.434 0.827271C27.3258 0.827271 32.1199 5.62223 32.1199 11.515C32.1199 17.4078 27.3258 22.2028 21.434 22.2028ZM21.434 2.05426C16.2202 2.05426 11.9587 6.30031 11.9587 11.5312C11.9587 16.762 16.204 21.0081 21.434 21.0081C26.664 21.0081 30.9093 16.762 30.9093 11.5312C30.9093 6.30031 26.664 2.05426 21.434 2.05426Z" fill="white"/>
<path d="M21.434 18.877C17.3823 18.877 14.0732 15.5835 14.0732 11.515C14.0732 7.44659 17.3823 4.15308 21.434 4.15308C25.4856 4.15308 28.7947 7.44659 28.7947 11.515C28.7947 15.5835 25.5017 18.877 21.434 18.877ZM21.434 5.36393C18.0442 5.36393 15.2839 8.12466 15.2839 11.515C15.2839 14.9054 18.0442 17.6662 21.434 17.6662C24.8238 17.6662 27.584 14.9054 27.584 11.515C27.584 8.12466 24.8238 5.36393 21.434 5.36393Z" fill="white"/>
<path d="M17.2853 17.1011C16.9463 17.1011 16.6719 16.8266 16.6719 16.4876V6.46176C16.6719 6.12273 16.9463 5.84827 17.2853 5.84827C17.6242 5.84827 17.8987 6.12273 17.8987 6.46176V16.4876C17.8987 16.8266 17.6242 17.1011 17.2853 17.1011Z" fill="white"/>
<path d="M25.5665 17.1979C25.2275 17.1979 24.9531 16.9235 24.9531 16.5844V6.17111C24.9531 5.83208 25.2275 5.55762 25.5665 5.55762C25.9055 5.55762 26.1799 5.83208 26.1799 6.17111V16.5844C26.1799 16.9235 25.9055 17.1979 25.5665 17.1979Z" fill="white"/>
<path d="M22.4182 14.2273H20.4327C20.0938 14.2273 19.8193 13.9528 19.8193 13.6138C19.8193 13.2748 20.0938 13.0003 20.4327 13.0003H22.4182C22.7572 13.0003 23.0316 13.2748 23.0316 13.6138C23.0316 13.9528 22.7572 14.2273 22.4182 14.2273Z" fill="#C2D100"/>
<path d="M21.4337 15.7772C21.0947 15.7772 20.8203 15.5027 20.8203 15.1637V13.6138C20.8203 13.2748 21.0947 13.0003 21.4337 13.0003C21.7727 13.0003 22.0471 13.2748 22.0471 13.6138V15.1637C22.0471 15.5027 21.7727 15.7772 21.4337 15.7772Z" fill="#C2D100"/>
<path d="M21.4337 10.9499C21.0947 10.9499 20.8203 10.6755 20.8203 10.3364V5.57376C20.8203 5.23472 21.0947 4.96027 21.4337 4.96027C21.7727 4.96027 22.0471 5.23472 22.0471 5.57376V10.3364C22.0471 10.6755 21.7727 10.9499 21.4337 10.9499Z" fill="white"/>
<path d="M11.3129 39.7036C5.4211 39.7036 0.626953 34.9086 0.626953 29.0158C0.626953 23.123 5.4211 18.3281 11.3129 18.3281C17.2047 18.3281 21.9988 23.123 21.9988 29.0158C21.9988 34.9086 17.2047 39.7036 11.3129 39.7036ZM11.3129 19.5551C6.09906 19.5551 1.8376 23.8011 1.8376 29.032C1.8376 34.2628 6.08292 38.5089 11.3129 38.5089C16.5429 38.5089 20.7882 34.2628 20.7882 29.032C20.7882 23.8011 16.5429 19.5551 11.3129 19.5551Z" fill="white"/>
<path d="M11.3129 36.3778C7.26124 36.3778 3.95215 33.0843 3.95215 29.0158C3.95215 24.9474 7.2451 21.6539 11.3129 21.6539C15.3806 21.6539 18.6736 24.9635 18.6736 29.0158C18.6736 33.0681 15.3806 36.3778 11.3129 36.3778ZM11.3129 22.8647C7.92306 22.8647 5.16279 25.6255 5.16279 29.0158C5.16279 32.4062 7.92306 35.1669 11.3129 35.1669C14.7027 35.1669 17.4629 32.4062 17.4629 29.0158C17.4629 25.6255 14.7027 22.8647 11.3129 22.8647Z" fill="white"/>
<path d="M7.18077 34.6019C6.84179 34.6019 6.56738 34.3274 6.56738 33.9884V23.9626C6.56738 23.6235 6.84179 23.3491 7.18077 23.3491C7.51975 23.3491 7.79417 23.6235 7.79417 23.9626V33.9884C7.79417 34.3274 7.51975 34.6019 7.18077 34.6019Z" fill="white"/>
<path d="M15.4611 34.6988C15.1221 34.6988 14.8477 34.4243 14.8477 34.0853V23.672C14.8477 23.3329 15.1221 23.0585 15.4611 23.0585C15.8 23.0585 16.0744 23.3329 16.0744 23.672V34.0853C16.0744 34.4243 15.8 34.6988 15.4611 34.6988Z" fill="white"/>
<path d="M12.3137 31.7282H10.3282C9.98926 31.7282 9.71484 31.4537 9.71484 31.1147C9.71484 30.7756 9.98926 30.5012 10.3282 30.5012H12.3137C12.6527 30.5012 12.9271 30.7756 12.9271 31.1147C12.9271 31.4537 12.6527 31.7282 12.3137 31.7282Z" fill="#C2D100"/>
<path d="M11.3126 33.278C10.9736 33.278 10.6992 33.0036 10.6992 32.6645V31.1147C10.6992 30.7756 10.9736 30.5012 11.3126 30.5012C11.6516 30.5012 11.926 30.7756 11.926 31.1147V32.6645C11.926 33.0036 11.6516 33.278 11.3126 33.278Z" fill="#C2D100"/>
<path d="M11.3126 28.4507C10.9736 28.4507 10.6992 28.1763 10.6992 27.8372V23.0746C10.6992 22.7355 10.9736 22.4611 11.3126 22.4611C11.6516 22.4611 11.926 22.7355 11.926 23.0746V27.8372C11.926 28.1763 11.6516 28.4507 11.3126 28.4507Z" fill="white"/>
<path d="M31.4584 39.7036C25.5666 39.7036 20.7725 34.9086 20.7725 29.0158C20.7725 23.123 25.5666 18.3281 31.4584 18.3281C37.3502 18.3281 42.1444 23.123 42.1444 29.0158C42.1444 34.9086 37.3502 39.7036 31.4584 39.7036ZM31.4584 19.5551C26.2446 19.5551 21.9831 23.8011 21.9831 29.032C21.9831 34.2628 26.2284 38.5089 31.4584 38.5089C36.6884 38.5089 40.9337 34.2628 40.9337 29.032C40.9337 23.8011 36.6884 19.5551 31.4584 19.5551Z" fill="white"/>
<path d="M31.4584 36.3778C27.4068 36.3778 24.0977 33.0843 24.0977 29.0158C24.0977 24.9474 27.4068 21.6539 31.4584 21.6539C35.51 21.6539 38.8191 24.9635 38.8191 29.0158C38.8191 33.0681 35.5261 36.3778 31.4584 36.3778ZM31.4584 22.8647C28.0686 22.8647 25.3083 25.6255 25.3083 29.0158C25.3083 32.4062 28.0686 35.1669 31.4584 35.1669C34.8482 35.1669 37.6084 32.4062 37.6084 29.0158C37.6084 25.6255 34.8482 22.8647 31.4584 22.8647Z" fill="white"/>
<path d="M27.3253 34.6019C26.9863 34.6019 26.7119 34.3274 26.7119 33.9884V23.9626C26.7119 23.6235 26.9863 23.3491 27.3253 23.3491C27.6643 23.3491 27.9387 23.6235 27.9387 23.9626V33.9884C27.9387 34.3274 27.6643 34.6019 27.3253 34.6019Z" fill="white"/>
<path d="M35.6066 34.6988C35.2676 34.6988 34.9932 34.4243 34.9932 34.0853V23.672C34.9932 23.3329 35.2676 23.0585 35.6066 23.0585C35.9455 23.0585 36.22 23.3329 36.22 23.672V34.0853C36.22 34.4243 35.9455 34.6988 35.6066 34.6988Z" fill="white"/>
<path d="M32.4592 31.7282H30.4737C30.1348 31.7282 29.8604 31.4537 29.8604 31.1147C29.8604 30.7756 30.1348 30.5012 30.4737 30.5012H32.4592C32.7982 30.5012 33.0726 30.7756 33.0726 31.1147C33.0726 31.4537 32.7982 31.7282 32.4592 31.7282Z" fill="#C2D100"/>
<path d="M31.4581 33.278C31.1191 33.278 30.8447 33.0036 30.8447 32.6645V31.1147C30.8447 30.7756 31.1191 30.5012 31.4581 30.5012C31.7971 30.5012 32.0715 30.7756 32.0715 31.1147V32.6645C32.0715 33.0036 31.7971 33.278 31.4581 33.278Z" fill="#C2D100"/>
<path d="M31.4581 28.4507C31.1191 28.4507 30.8447 28.1763 30.8447 27.8372V23.0746C30.8447 22.7355 31.1191 22.4611 31.4581 22.4611C31.7971 22.4611 32.0715 22.7355 32.0715 23.0746V27.8372C32.0715 28.1763 31.7971 28.4507 31.4581 28.4507Z" fill="white"/>
</svg>
