<svg width="31" height="33" viewBox="0 0 31 33" fill="none" xmlns="http://www.w3.org/2000/svg">
<path d="M12.9424 26.6067H18.5376V29.6048H12.9424V26.6067Z" fill="#C2D100"/>
<path d="M18.5374 17.7254V10.3108H12.9422V17.7254C10.6525 19.0632 9.18518 21.7067 9.2013 24.3179V32.7157H22.2622V24.3179C22.2944 21.6583 20.7787 19.0471 18.5213 17.7254H18.5374ZM14.7965 12.1806H16.667V14.7918H14.7965V12.1806ZM20.4078 30.8621H11.0717V25.2528H20.4078V30.8621ZM11.1362 23.3991C11.4426 21.3682 12.8616 19.6757 14.7965 18.8698V16.6615H16.667V18.8698C18.6019 19.6757 20.0209 21.3682 20.3272 23.3991H11.1362Z" fill="white"/>
<path d="M18.393 8.44101L18.5542 0.978088H12.9268L13.088 8.44101H18.393ZM16.6515 2.84785L16.5709 6.58737H14.9101L14.8295 2.84785H16.6676H16.6515Z" fill="white"/>
<path d="M14.9257 20.3365H16.6349C17.7314 20.3365 18.6182 21.2231 18.6182 22.3191V22.3675H12.9424V22.3191C12.9424 21.2231 13.8292 20.3365 14.9257 20.3365Z" fill="#C2D100"/>
<path d="M8.12156 9.32751H1.60725C0.96607 9.32751 0.446289 9.84711 0.446289 10.4881C0.446289 11.129 0.96607 11.6486 1.60725 11.6486H8.12156C8.76274 11.6486 9.28253 11.129 9.28253 10.4881C9.28253 9.84711 8.76274 9.32751 8.12156 9.32751Z" fill="#C2D100"/>
<path d="M9.34873 4.37027L3.27817 2.00798C2.68066 1.77546 2.00773 2.07117 1.77513 2.66846C1.54254 3.26575 1.83835 3.93844 2.43586 4.17095L8.50642 6.53324C9.10393 6.76575 9.77686 6.47004 10.0095 5.87276C10.2421 5.27547 9.94624 4.60278 9.34873 4.37027Z" fill="#C2D100"/>
<path d="M8.50986 14.4386L2.4393 16.8009C1.8418 17.0334 1.54598 17.7061 1.77858 18.3034C2.01118 18.9007 2.68411 19.1964 3.28162 18.9639L9.35218 16.6016C9.94968 16.3691 10.2455 15.6964 10.0129 15.0991C9.78031 14.5018 9.10737 14.2061 8.50986 14.4386Z" fill="#C2D100"/>
<path d="M23.23 11.6486L29.7443 11.6486C30.3855 11.6486 30.9053 11.129 30.9053 10.4881C30.9053 9.84713 30.3855 9.32754 29.7443 9.32754H23.23C22.5888 9.32754 22.069 9.84713 22.069 10.4881C22.069 11.129 22.5888 11.6486 23.23 11.6486Z" fill="#C2D100"/>
<path d="M22.8358 6.52267L28.9064 4.16038C29.5039 3.92787 29.7997 3.25518 29.5671 2.65789C29.3345 2.0606 28.6616 1.7649 28.0641 1.99741L21.9935 4.3597C21.396 4.59221 21.1002 5.2649 21.3328 5.86218C21.5654 6.45947 22.2383 6.75518 22.8358 6.52267Z" fill="#C2D100"/>
<path d="M21.996 16.6207L28.0666 18.983C28.6641 19.2155 29.337 18.9198 29.5696 18.3225C29.8022 17.7252 29.5064 17.0525 28.9089 16.82L22.8383 14.4577C22.2408 14.2252 21.5679 14.5209 21.3353 15.1182C21.1027 15.7155 21.3985 16.3882 21.996 16.6207Z" fill="#C2D100"/>
</svg>
