<svg width="34" height="32" viewBox="0 0 34 32" fill="none" xmlns="http://www.w3.org/2000/svg">
<path d="M17.015 9.92411L8.97363 5.87352L9.69161 4.44861L17.015 8.13097L24.3543 4.44861L25.0723 5.87352L17.015 9.92411Z" fill="white"/>
<path d="M17.0154 18.9219L8.52734 14.6632V4.67279L17.0154 0.414062L25.5035 4.67279V14.6632L17.0154 18.9219ZM10.1228 13.6705L17.0154 17.1288L23.908 13.6705V5.64941L17.0154 2.1912L10.1228 5.64941V13.6705Z" fill="white"/>
<path d="M17.8133 9.02759H16.2178V18.0414H17.8133V9.02759Z" fill="white"/>
<path d="M24.7214 22.7803L16.6641 18.7457L17.382 17.3208L24.7214 20.9871L32.0447 17.3208L32.7627 18.7457L24.7214 22.7803Z" fill="white"/>
<path d="M24.7214 31.7942L16.6641 27.7596L17.382 26.3186L24.7214 30.001L31.6139 26.5428V18.5217L24.3544 14.8873L25.0724 13.4464L33.2094 17.529V27.5354L24.7214 31.7942Z" fill="white"/>
<path d="M25.5193 21.8838H23.9238V30.8976H25.5193V21.8838Z" fill="white"/>
<path d="M9.325 31.7941L0.836914 27.5354V17.545L8.97399 13.4624L9.69196 14.8873L3.42163 18.0253L9.325 20.9872L17.8131 16.7285V27.5194L9.325 31.7781V31.7941ZM2.43242 26.5428L9.325 30.001L16.2176 26.5428V19.3222L9.325 22.7804L2.43242 19.3222V26.5428Z" fill="white"/>
<path d="M10.1228 21.8838H8.52734V30.8976H10.1228V21.8838Z" fill="white"/>
</svg>
