<svg width="35" height="34" viewBox="0 0 35 34" fill="none" xmlns="http://www.w3.org/2000/svg">
<path d="M16.9415 24.0193C16.9415 20.3975 14.0066 17.4327 10.3858 17.4327C6.76499 17.4327 3.83008 20.3815 3.83008 24.0193C3.83008 27.6571 6.76499 30.6058 10.3858 30.6058C14.0066 30.6058 16.9415 27.6571 16.9415 24.0193ZM10.3858 29.5481C7.35516 29.5481 4.88282 27.0641 4.88282 24.0193C4.88282 20.9744 7.35516 18.4904 10.3858 18.4904C13.4164 18.4904 15.8887 20.9744 15.8887 24.0193C15.8887 27.0641 13.4164 29.5481 10.3858 29.5481Z" fill="white"/>
<path d="M13.863 23.4904C13.5759 23.4904 13.3366 23.7308 13.3366 24.0192C13.3366 25.6378 12.0287 26.9679 10.4017 26.9679C8.77475 26.9679 7.4668 25.6538 7.4668 24.0192C7.4668 22.3846 8.77475 21.0705 10.4017 21.0705C10.6888 21.0705 10.9281 20.8301 10.9281 20.5417C10.9281 20.2532 10.6888 20.0128 10.4017 20.0128C8.20053 20.0128 6.41406 21.8077 6.41406 24.0192C6.41406 26.2308 8.20053 28.0256 10.4017 28.0256C12.6029 28.0256 14.3894 26.2308 14.3894 24.0192C14.3894 23.7308 14.1501 23.4904 13.863 23.4904Z" fill="white"/>
<path d="M9.63574 24.0192C9.63574 24.4359 9.9707 24.7885 10.4014 24.7885C10.832 24.7885 11.167 24.4519 11.167 24.0192C11.167 23.5865 10.832 23.25 10.4014 23.25C9.9707 23.25 9.63574 23.5865 9.63574 24.0192Z" fill="white"/>
<path d="M31.4562 16.2789C33.2426 14.484 34.2156 12.1122 34.2156 9.58014C34.2156 7.04809 33.2426 4.66027 31.4562 2.88142C27.7716 -0.8205 21.7901 -0.8205 18.1055 2.88142C18.0896 2.89745 18.0736 2.9295 18.0577 2.94553C18.0577 2.94553 18.0577 2.94553 18.0417 2.94553L3.86167 17.1923C3.86167 17.1923 3.70216 17.3526 3.62241 17.4327L3.57456 17.4808C3.57456 17.4808 3.57456 17.4808 3.57456 17.4968C1.96355 19.1955 0.974609 21.4872 0.974609 24.0032C0.974609 29.2276 5.20152 33.4904 10.4174 33.4904C13.1449 33.4904 15.6013 32.3045 17.3399 30.4455L31.4721 16.2789H31.4562ZM2.02735 24.0192C2.02735 21.7596 2.92058 19.7083 4.37208 18.1859L4.61134 17.9455C6.12665 16.4872 8.16832 15.5898 10.4174 15.5898C12.8578 15.5898 15.059 16.6474 16.5902 18.3301C17.962 19.8366 18.7914 21.8237 18.7914 24.0032C18.7914 26.1827 17.946 28.1699 16.5902 29.6763L16.0639 30.2051C14.5645 31.5833 12.5866 32.4167 10.4174 32.4167C5.79169 32.4167 2.02735 28.6346 2.02735 23.9872V24.0192ZM17.6908 17.9936L28.8562 6.77565C29.0636 6.56732 29.0636 6.23078 28.8562 6.02245C28.6489 5.81412 28.3139 5.81412 28.1066 6.02245L16.9731 17.2083C16.1436 16.391 15.1547 15.734 14.07 15.2692L20.7374 8.57053C20.9447 8.36219 20.9447 8.02565 20.7374 7.81732C20.53 7.60899 20.1951 7.60899 19.9877 7.81732L12.9535 14.8846C12.14 14.6603 11.2946 14.5321 10.4014 14.5321C9.41247 14.5321 8.45544 14.6923 7.5622 14.9808L18.7914 3.69873C18.7914 3.69873 18.8233 3.65065 18.8393 3.63463C18.8393 3.63463 18.8393 3.63463 18.8552 3.63463C22.1251 0.349372 27.4366 0.349372 30.7225 3.63463C31.9347 4.85258 32.7163 6.37501 33.0353 8.02565L26.4796 14.6122C26.2722 14.8205 26.2722 15.1571 26.4796 15.3654C26.5753 15.4616 26.7189 15.5257 26.8465 15.5257C26.9741 15.5257 27.1176 15.4776 27.2133 15.3654L33.1629 9.38783C33.1629 9.38783 33.1629 9.53206 33.1629 9.59617C33.1629 11.8558 32.2856 13.9712 30.7065 15.5577L19.4135 26.8878C19.7006 25.9904 19.8442 25.0289 19.8442 24.0513C19.8442 21.7596 19.0307 19.6603 17.6749 18.0257L17.6908 17.9936Z" fill="white"/>
</svg>
