<svg width="24" height="37" viewBox="0 0 24 37" fill="none" xmlns="http://www.w3.org/2000/svg">
<path d="M15.9723 13.1637C15.1009 13.1637 14.2613 13.3252 13.485 13.6158C12.7879 12.5502 11.8691 11.63 10.7918 10.9842V0.490173H4.58151V10.9842C2.0784 12.4695 0.414934 15.424 0.430776 18.443V36.3959H14.9267V27.8715C15.2593 27.9199 15.6079 27.9522 15.9723 27.9522C19.9646 27.9522 23.2281 24.6426 23.2281 20.558C23.2281 16.4734 19.9804 13.1637 15.9723 13.1637ZM6.64103 2.58898H8.7164V7.6584H6.64103V2.58898ZM6.64103 12.2435V9.75721H8.7164V12.2435C9.92043 12.7601 10.9343 13.5835 11.6631 14.6006C10.7126 15.3271 9.93627 16.2796 9.42931 17.3775H2.58535C2.93389 15.0688 4.5023 13.1637 6.64103 12.2435ZM12.8671 34.2648H2.4903V32.1498H12.8671V34.2648ZM12.8671 30.0349H2.4903V19.4601H8.79561C8.74808 19.7992 8.7164 20.1544 8.7164 20.5257C8.7164 20.897 8.74808 21.2361 8.79561 21.5912H4.58151V23.69H9.42931C10.1422 25.2238 11.3621 26.4669 12.8671 27.1934V30.0187V30.0349ZM15.9723 25.805C13.1206 25.805 10.7918 23.4317 10.7918 20.5257C10.7918 17.6197 13.1206 15.2464 15.9723 15.2464C18.8239 15.2464 21.1528 17.6197 21.1528 20.5257C21.1528 23.4317 18.8239 25.805 15.9723 25.805Z" fill="white"/>
<path d="M17.0019 19.4924V16.7963H14.9424V21.5912H19.6476V19.4924H17.0019Z" fill="white"/>
<path d="M10.7757 25.8212H4.56543V27.92H10.7757V25.8212Z" fill="white"/>
<path d="M15.9722 28.0491C11.9165 28.0491 8.60547 24.691 8.60547 20.5418C8.60547 16.3926 11.9007 13.0345 15.9722 13.0345C20.0437 13.0345 23.339 16.3926 23.339 20.5418C23.339 24.691 20.0437 28.0491 15.9722 28.0491ZM15.9722 15.4724C13.2315 15.4724 10.9818 17.7488 10.9818 20.558C10.9818 23.3671 13.2156 25.6435 15.9722 25.6435C18.7288 25.6435 20.9626 23.3671 20.9626 20.558C20.9626 17.7488 18.7288 15.4724 15.9722 15.4724Z" fill="#C2D100"/>
</svg>
