<svg width="21" height="19" viewBox="0 0 21 19" fill="none" xmlns="http://www.w3.org/2000/svg">
<g clip-path="url(#clip0_1047_717)">
<path d="M10.5202 10.1512C13.3351 10.1512 15.617 7.94591 15.617 5.22556C15.617 2.50521 13.3351 0.299927 10.5202 0.299927C7.70528 0.299927 5.42334 2.50521 5.42334 5.22556C5.42334 7.94591 7.70528 10.1512 10.5202 10.1512Z" stroke="#B8B8B8" stroke-width="0.75" stroke-linecap="round" stroke-linejoin="round"/>
<path d="M10.5202 8.52511C12.4058 8.52511 13.9344 7.04786 13.9344 5.22557C13.9344 3.40328 12.4058 1.92603 10.5202 1.92603C8.63456 1.92603 7.10596 3.40328 7.10596 5.22557C7.10596 7.04786 8.63456 8.52511 10.5202 8.52511Z" stroke="#B8B8B8" stroke-width="0.75" stroke-linecap="round" stroke-linejoin="round"/>
<path d="M8.4292 2.75488V7.65684" stroke="#B8B8B8" stroke-width="0.75" stroke-linecap="round" stroke-linejoin="round"/>
<path d="M12.6191 2.61279V7.70419" stroke="#B8B8B8" stroke-width="0.75" stroke-linecap="round" stroke-linejoin="round"/>
<path d="M10.022 6.25171H11.0266" stroke="#B8B8B8" stroke-width="0.75" stroke-linecap="round" stroke-linejoin="round"/>
<path d="M10.5205 6.25171V7.0095" stroke="#B8B8B8" stroke-width="0.75" stroke-linecap="round" stroke-linejoin="round"/>
<path d="M10.5205 2.31287V4.64938" stroke="#B8B8B8" stroke-width="0.75" stroke-linecap="round" stroke-linejoin="round"/>
<path d="M5.4074 18.7C8.22231 18.7 10.5042 16.4947 10.5042 13.7744C10.5042 11.054 8.22231 8.84875 5.4074 8.84875C2.59248 8.84875 0.310547 11.054 0.310547 13.7744C0.310547 16.4947 2.59248 18.7 5.4074 18.7Z" stroke="#B8B8B8" stroke-width="0.75" stroke-linecap="round" stroke-linejoin="round"/>
<path d="M5.4074 17.0739C7.29303 17.0739 8.82164 15.5967 8.82164 13.7744C8.82164 11.9521 7.29303 10.4749 5.4074 10.4749C3.52177 10.4749 1.99316 11.9521 1.99316 13.7744C1.99316 15.5967 3.52177 17.0739 5.4074 17.0739Z" stroke="#B8B8B8" stroke-width="0.75" stroke-linecap="round" stroke-linejoin="round"/>
<path d="M3.30811 11.3115V16.2135" stroke="#B8B8B8" stroke-width="0.75" stroke-linecap="round" stroke-linejoin="round"/>
<path d="M7.49854 11.1694V16.2608" stroke="#B8B8B8" stroke-width="0.75" stroke-linecap="round" stroke-linejoin="round"/>
<path d="M4.90088 14.8085H5.90555" stroke="#B8B8B8" stroke-width="0.75" stroke-linecap="round" stroke-linejoin="round"/>
<path d="M5.40723 14.8085V15.5584" stroke="#B8B8B8" stroke-width="0.75" stroke-linecap="round" stroke-linejoin="round"/>
<path d="M5.40723 10.8695V13.1981" stroke="#B8B8B8" stroke-width="0.75" stroke-linecap="round" stroke-linejoin="round"/>
<path d="M15.6008 18.7C18.4157 18.7 20.6976 16.4947 20.6976 13.7744C20.6976 11.054 18.4157 8.84875 15.6008 8.84875C12.7858 8.84875 10.5039 11.054 10.5039 13.7744C10.5039 16.4947 12.7858 18.7 15.6008 18.7Z" stroke="#B8B8B8" stroke-width="0.75" stroke-linecap="round" stroke-linejoin="round"/>
<path d="M15.6008 17.0739C17.4864 17.0739 19.015 15.5967 19.015 13.7744C19.015 11.9521 17.4864 10.4749 15.6008 10.4749C13.7151 10.4749 12.1865 11.9521 12.1865 13.7744C12.1865 15.5967 13.7151 17.0739 15.6008 17.0739Z" stroke="#B8B8B8" stroke-width="0.75" stroke-linecap="round" stroke-linejoin="round"/>
<path d="M13.5015 11.3115V16.2135" stroke="#B8B8B8" stroke-width="0.75" stroke-linecap="round" stroke-linejoin="round"/>
<path d="M17.6919 11.1694V16.2608" stroke="#B8B8B8" stroke-width="0.75" stroke-linecap="round" stroke-linejoin="round"/>
<path d="M15.0947 14.8085H16.0994" stroke="#B8B8B8" stroke-width="0.75" stroke-linecap="round" stroke-linejoin="round"/>
<path d="M15.6011 14.8085V15.5584" stroke="#B8B8B8" stroke-width="0.75" stroke-linecap="round" stroke-linejoin="round"/>
<path d="M15.6011 10.8695V13.1981" stroke="#B8B8B8" stroke-width="0.75" stroke-linecap="round" stroke-linejoin="round"/>
</g>
<defs>
<clipPath id="clip0_1047_717">
<rect width="21" height="19" fill="white"/>
</clipPath>
</defs>
</svg>
