<svg width="16" height="17" viewBox="0 0 16 17" fill="none" xmlns="http://www.w3.org/2000/svg">
<path d="M15.2458 8.44059C15.2488 8.43729 15.2488 8.43729 15.2519 8.43399C15.2612 8.42079 15.2704 8.41089 15.2766 8.39769C15.2796 8.39439 15.2796 8.39109 15.2827 8.38779C15.2889 8.37459 15.2981 8.3614 15.3043 8.3482C15.3043 8.3449 15.3073 8.3416 15.3073 8.3416C15.3135 8.3284 15.3197 8.3152 15.3258 8.2987C15.3258 8.2954 15.3258 8.2954 15.3289 8.2921C15.3351 8.2789 15.3381 8.2624 15.3443 8.24591C15.3443 8.24261 15.3443 8.23931 15.3474 8.23931C15.3505 8.22281 15.3566 8.20961 15.3566 8.19311C15.3566 8.18651 15.3566 8.18321 15.3597 8.17661C15.3628 8.16341 15.3628 8.15021 15.3659 8.13702C15.3689 8.11722 15.3689 8.10072 15.3689 8.08092C15.3689 8.06112 15.3689 8.04462 15.3659 8.02483C15.3659 8.01163 15.3628 7.99843 15.3597 7.98523C15.3597 7.97863 15.3597 7.97533 15.3566 7.96873C15.3535 7.95223 15.3505 7.93903 15.3474 7.92254C15.3474 7.91924 15.3474 7.91594 15.3443 7.91594C15.3412 7.89944 15.3351 7.88624 15.3289 7.86974C15.3289 7.86644 15.3289 7.86644 15.3258 7.86314C15.3197 7.84994 15.3135 7.83344 15.3073 7.82024C15.3073 7.81694 15.3043 7.81364 15.3043 7.81364C15.2981 7.80045 15.292 7.78725 15.2827 7.77405C15.2796 7.77075 15.2796 7.76745 15.2766 7.76415C15.2673 7.75095 15.2612 7.73775 15.2519 7.72785C15.2488 7.72455 15.2488 7.72455 15.2458 7.72125C15.2334 7.70805 15.2242 7.69156 15.2088 7.67836L12.1631 4.41825C11.9568 4.19717 11.6211 4.19717 11.4148 4.41825C11.2085 4.63933 11.2085 4.999 11.4148 5.22008L13.5582 7.51667H5.03701C4.74445 7.51667 4.50732 7.77075 4.50732 8.08092C4.50732 8.39439 4.74445 8.64847 5.03701 8.64847H13.5612L11.4333 10.9286C11.2269 11.1496 11.2269 11.5093 11.4333 11.7304C11.5349 11.8393 11.6704 11.8954 11.8059 11.8954C11.9414 11.8954 12.0769 11.8393 12.1785 11.7304L15.2057 8.48678C15.2211 8.46699 15.2334 8.45379 15.2458 8.44059Z" fill="#B8B8B8"/>
<path d="M4.23328 1.1318H8.17512C8.46768 1.1318 8.70481 0.877721 8.70481 0.567549C8.70481 0.254077 8.46768 0 8.17512 0H4.23328C2.65347 0 1.36621 1.37928 1.36621 3.07202V13.0932C1.36621 14.786 2.65347 16.1652 4.23328 16.1652H8.11045C8.40301 16.1652 8.64014 15.9112 8.64014 15.601C8.64014 15.2875 8.40301 15.0334 8.11045 15.0334H4.23328C3.23551 15.0334 2.4225 14.1623 2.4225 13.0932V3.07202C2.42558 1.99962 3.23551 1.1318 4.23328 1.1318Z" fill="#B8B8B8"/>
</svg>
