<svg width="14" height="16" viewBox="0 0 14 16" fill="none" xmlns="http://www.w3.org/2000/svg">
<path d="M7.06058 8.82446C5.85849 8.82446 4.65366 9.12183 3.69592 9.71266C2.73772 10.304 2.17139 11.1545 2.17139 12.0701C2.17139 12.7309 2.46963 13.355 2.99303 13.8744H3.72378L3.85029 13.3672C3.30405 12.9441 3.08483 12.4839 3.08483 12.0701C3.08483 11.5864 3.38124 11.0381 4.15447 10.5608C5.70001 9.60702 8.41749 9.60702 9.96349 10.5608C10.5344 10.9134 10.9628 10.0467 10.422 9.71266C9.46338 9.12183 8.26267 8.82446 7.06058 8.82446Z" fill="#B8B8B8"/>
<path fill-rule="evenodd" clip-rule="evenodd" d="M4.66309 5.45948C4.66309 4.04892 5.74323 2.89612 7.06041 2.89612C8.37759 2.89612 9.45408 4.04892 9.45408 5.45948C9.45408 6.87004 8.37759 8.02284 7.06041 8.02284C5.74323 8.02284 4.66309 6.87004 4.66309 5.45948ZM8.54019 5.45948C8.54019 4.57764 7.88388 3.87431 7.06041 3.87431C6.23694 3.87431 5.57698 4.57812 5.57698 5.45948C5.57698 6.34083 6.2374 7.04416 7.06041 7.04416C7.88342 7.04416 8.54019 6.34132 8.54019 5.45948Z" fill="#B8B8B8"/>
<path d="M12.982 9.90238C12.866 9.90727 12.7569 9.95863 12.6751 10.0467L10.6587 12.2021L9.86309 11.3501C9.68542 11.1584 9.39632 11.1579 9.21728 11.3486C9.21683 11.3491 9.21637 11.3496 9.21591 11.3501C9.03871 11.5409 9.03871 11.849 9.21591 12.0397L10.3385 13.2419C10.5171 13.4317 10.8048 13.4317 10.9825 13.2419L13.3186 10.7363C13.4963 10.5451 13.4963 10.2374 13.3186 10.0467C13.23 9.9508 13.1081 9.89896 12.982 9.90238Z" fill="#B8B8B8"/>
<path d="M5.17346 0.952419C3.74986 1.38918 2.45871 2.31945 1.53568 3.6674C-0.310386 6.3638 -0.218585 10.0624 1.7581 12.6502C3.73479 15.238 7.10036 16.0675 9.93385 14.6648C10.1627 14.5518 10.2627 14.2608 10.1567 14.0157C10.1563 14.0152 10.1563 14.0152 10.1563 14.0152C10.0508 13.7697 9.77903 13.6626 9.55021 13.7766C9.54975 13.7766 9.54975 13.7766 9.54975 13.777C7.08986 14.9944 4.17826 14.2759 2.46282 12.0295C0.747379 9.78308 0.668366 6.58585 2.27054 4.24551C3.87272 1.90518 6.7464 1.02432 9.26293 2.10082C11.7795 3.17684 13.2921 5.93388 12.9478 8.81271C12.9153 9.08073 13.0912 9.32626 13.3414 9.36099C13.3428 9.36099 13.3442 9.36147 13.3456 9.36147C13.5958 9.39424 13.8237 9.20399 13.8543 8.93547C14.2512 5.61939 12.4988 2.43096 9.59999 1.1911C8.15036 0.570434 6.5966 0.515166 5.17346 0.952419V0.952419Z" fill="#B8B8B8"/>
</svg>
