<svg width="26" height="28" viewBox="0 0 26 28" fill="none" xmlns="http://www.w3.org/2000/svg">
<g clip-path="url(#clip0_1047_915)">
<path d="M9.48574 17.4395C10.3933 18.1827 10.6603 19.3753 10.251 20.3778C11.034 20.7407 11.8526 21.0173 12.7068 21.1901C13.4009 21.3284 14.1127 21.3975 14.8601 21.3975C20.8752 21.3975 25.7691 16.6444 25.7691 10.8025C25.7691 4.96048 20.8752 0.207397 14.8601 0.207397C8.84508 0.207397 3.95117 4.97777 3.95117 10.8197C3.95117 11.5284 4.02236 12.237 4.16472 12.9111C4.52064 14.5531 5.25028 16.0395 6.28245 17.3185C7.24344 16.679 8.54255 16.6963 9.48574 17.4568V17.4395ZM14.8601 2.79999C19.3981 2.79999 23.0997 6.39505 23.0997 10.8025C23.0997 15.2099 19.3981 18.8049 14.8601 18.8049C10.3222 18.8049 6.62058 15.2099 6.62058 10.8025C6.62058 6.39505 10.3222 2.79999 14.8601 2.79999Z" fill="#B8B8B8"/>
<path d="M5.33909 18.2346L0.623146 23.7481C-0.320044 24.8543 -0.15988 26.479 0.96127 27.3951C1.45956 27.7926 2.06462 28 2.66969 28C3.43492 28 4.20015 27.6889 4.71623 27.0667L9.50337 21.4667C7.88393 20.6889 6.46024 19.5827 5.33909 18.2346Z" fill="#B8B8B8"/>
<path d="M9.48551 17.4395C8.54232 16.679 7.24321 16.6617 6.28223 17.3012C7.33219 18.6148 8.68469 19.6691 10.2507 20.3778C10.66 19.358 10.3931 18.1654 9.48551 17.4395Z" fill="#B8B8B8"/>
<path d="M4.16406 12.8938C4.50219 14.5358 5.23182 16.0395 6.26399 17.3185C6.26399 17.3185 6.26399 17.3185 6.28179 17.3185C5.24962 16.0395 4.51998 14.5531 4.16406 12.9111V12.8938Z" fill="#1B1B1B"/>
<path d="M10.251 20.3951C11.034 20.7581 11.8526 21.0346 12.7246 21.1902C11.8526 21.0173 11.034 20.7408 10.2688 20.3778L10.251 20.3951Z" fill="#1B1B1B"/>
<path d="M16.6039 6.58518C16.6039 6.58518 20.1453 8.33086 19.3089 12.3407C19.2199 12.8074 19.5224 13.2568 20.0029 13.3605C20.0563 13.3605 20.1275 13.3605 20.1809 13.3605C20.5902 13.3605 20.9639 13.0839 21.0529 12.6691C21.9249 8.43457 19.0419 5.80741 17.3869 5.01234C16.942 4.80494 16.4081 4.97778 16.1946 5.40987C15.981 5.84197 16.159 6.36049 16.6039 6.5679V6.58518Z" fill="#B8B8B8"/>
</g>
<defs>
<clipPath id="clip0_1047_915">
<rect width="26" height="28" fill="white"/>
</clipPath>
</defs>
</svg>
