<svg width="14" height="16" viewBox="0 0 14 16" fill="none" xmlns="http://www.w3.org/2000/svg">
<path fill-rule="evenodd" clip-rule="evenodd" d="M12.719 4.63564L12.7194 4.64706C12.7499 6.37027 12.7878 8.51487 12.1166 10.4636C11.7486 11.5323 11.1918 12.4613 10.4616 13.2249C9.6304 14.0942 8.54186 14.7848 7.22631 15.2775C7.18325 15.2936 7.13842 15.3067 7.09306 15.3165C7.0292 15.3301 6.96471 15.337 6.90033 15.337C6.83595 15.337 6.77156 15.3301 6.7076 15.3165C6.66224 15.3067 6.61772 15.2938 6.57486 15.2777C5.25775 14.7859 4.16806 14.0957 3.33611 13.2263C2.60565 12.4628 2.04879 11.5341 1.6811 10.4656C1.0124 8.52271 1.05045 6.38213 1.08107 4.66217L1.0817 4.63564C1.08765 4.49372 1.09173 4.34464 1.09403 4.17988C1.10521 3.37089 1.70576 2.7018 2.4611 2.65669C4.03616 2.56245 5.25461 2.01245 6.2957 0.925762L6.30459 0.916696C6.64426 0.583269 7.1565 0.583269 7.49607 0.916696L7.50496 0.925762C8.54604 2.01245 9.76449 2.56245 11.3396 2.65658C12.095 2.7018 12.6954 3.37089 12.7066 4.17977C12.709 4.34565 12.713 4.49473 12.719 4.63564ZM6.96105 14.4649C9.21745 13.6199 10.6572 12.2136 11.3624 10.1658C11.9806 8.37105 11.9465 6.40452 11.9158 4.669C11.9095 4.52103 11.9053 4.36501 11.9029 4.19264C11.898 3.83336 11.6308 3.5362 11.2948 3.51617C10.4034 3.46289 9.62037 3.27844 8.90087 2.95228C8.18243 2.62658 7.54425 2.16746 6.95008 1.54874C6.91998 1.52132 6.88078 1.52143 6.85058 1.54874C6.25651 2.16746 5.61833 2.62658 4.89978 2.95228C4.18029 3.27844 3.39726 3.46289 2.50594 3.51617C2.16992 3.5362 1.90278 3.83336 1.89776 4.19253C1.89546 4.364 1.89128 4.52003 1.88501 4.669L1.8848 4.67862C1.85397 6.41213 1.81906 8.37709 2.43539 10.168C3.14015 12.2159 4.5808 13.6215 6.8396 14.4649C6.84755 14.4679 6.85612 14.4703 6.8649 14.4722C6.88852 14.4773 6.91224 14.4773 6.93555 14.4723C6.94443 14.4704 6.953 14.4679 6.96105 14.4649Z" fill="#B8B8B8"/>
<path fill-rule="evenodd" clip-rule="evenodd" d="M3.48584 8.00199C3.48584 5.9861 5.01732 4.34595 6.89987 4.34595C8.78231 4.34595 10.3139 5.9861 10.3139 8.00199C10.3139 10.018 8.78231 11.6582 6.89987 11.6582C5.01732 11.6582 3.48584 10.018 3.48584 8.00199ZM4.28967 8.00199C4.28967 9.54332 5.46057 10.7972 6.89986 10.7972C8.33905 10.7972 9.50995 9.54332 9.50995 8.00199C9.50995 6.46067 8.33905 5.20677 6.89986 5.20677C5.46057 5.20677 4.28967 6.46067 4.28967 8.00199Z" fill="#B8B8B8"/>
<path d="M7.88144 6.86701L6.29572 8.56515L5.86532 8.10424C5.70834 7.93613 5.45384 7.93613 5.29686 8.10424C5.13998 8.27235 5.13998 8.54489 5.29686 8.71289L6.01154 9.47824C6.09003 9.56229 6.19288 9.60426 6.29572 9.60426C6.39856 9.60426 6.50141 9.56229 6.5799 9.47824L8.44991 7.47566C8.60678 7.30755 8.60678 7.03501 8.44991 6.86701C8.29292 6.69879 8.03843 6.69879 7.88144 6.86701Z" fill="#B8B8B8"/>
</svg>
