<svg width="19" height="20" viewBox="0 0 19 20" fill="none" xmlns="http://www.w3.org/2000/svg">
<rect width="18.7222" height="20" transform="translate(0.0834961)" fill="#292929"/>
<path fill-rule="evenodd" clip-rule="evenodd" d="M16.3811 8.60543C16.0696 8.3998 15.7229 8.35793 15.4171 8.3901V8.04683C15.4171 4.53775 12.729 1.66663 9.44448 1.66663C6.15959 1.66663 3.4719 4.53818 3.4719 8.04683V8.3901C3.16608 8.3579 2.8193 8.3998 2.50784 8.60543C1.93432 8.98407 1.64355 9.78183 1.64355 10.9765C1.64355 12.1732 1.93487 12.9752 2.50943 13.3602C2.79483 13.5515 3.12814 13.618 3.4719 13.5864V13.9388C3.4719 14.2084 3.67655 14.427 3.92898 14.427H5.75732C6.00976 14.427 6.21441 14.2084 6.21441 13.9388V8.04683C6.21441 7.77717 6.00976 7.55855 5.75732 7.55855H4.40694C4.63877 4.80696 6.80935 2.64319 9.44448 2.64319C12.0796 2.64319 14.2502 4.80696 14.482 7.55855H13.1316C12.8792 7.55855 12.6746 7.77717 12.6746 8.04683V13.9388C12.6746 14.2084 12.8792 14.427 13.1316 14.427H14.5029V14.9153C14.5029 15.723 13.8877 16.3802 13.1316 16.3802H11.6513C11.4626 15.8119 10.9545 15.4036 10.3587 15.4036H9.44448C8.68837 15.4036 8.07322 16.0607 8.07322 16.8684C8.07322 17.6762 8.68837 18.3333 9.44448 18.3333H10.3587C10.9545 18.3333 11.4626 17.925 11.6513 17.3567H13.1316C14.3918 17.3567 15.4171 16.2615 15.4171 14.9153V13.5864C15.7609 13.6179 16.0942 13.5515 16.3795 13.3602C16.9541 12.9752 17.2454 12.1732 17.2454 10.9765C17.2454 9.78183 16.9546 8.98407 16.3811 8.60543ZM5.30024 8.53512V13.4505H4.38607V8.53512H5.30024ZM10.3587 17.3567C10.6107 17.3567 10.8157 17.1377 10.8157 16.8684C10.8157 16.5992 10.6107 16.3802 10.3587 16.3802H9.44448C9.19244 16.3802 8.98739 16.5992 8.98739 16.8684C8.98739 17.1377 9.19244 17.3567 9.44448 17.3567H10.3587ZM13.5887 13.4505H14.5029V8.53512H13.5887V13.4505ZM3.4719 12.5882C3.32606 12.6153 3.14377 12.6172 2.99525 12.5179C2.7131 12.3293 2.55773 11.778 2.55773 10.9655C2.55773 10.1607 2.70963 9.61579 2.98544 9.43105C3.13457 9.33115 3.32246 9.33826 3.4719 9.36969V12.5882ZM15.4171 12.5881C15.5649 12.6154 15.7492 12.6173 15.897 12.5168C16.177 12.3263 16.3312 11.7755 16.3312 10.966C16.3312 10.161 16.1793 9.61586 15.9035 9.43108C15.7544 9.33114 15.5665 9.33825 15.4171 9.3697V12.5881Z" fill="#B8B8B8"/>
</svg>
